<svg width="15" height="34" viewBox="0 0 15 34" fill="none" xmlns="http://www.w3.org/2000/svg">
<path d="M4.02261 0.029802C4.61085 0.029802 5.20357 0.0553723 5.7918 0.029802C6.2479 -0.0171857 6.70739 0.0839431 7.09414 0.316448C7.48089 0.548954 7.7718 0.898891 7.91859 1.30832C10.0453 5.6297 12.1357 9.97237 14.3936 14.2298C14.7708 14.8557 14.9766 15.5601 14.9924 16.2796C15.0082 16.9991 14.8336 17.7109 14.4842 18.3509C12.2218 23.0772 10.1674 27.8716 8.07236 32.6618C7.93412 33.0831 7.64781 33.4476 7.26051 33.6955C6.87321 33.9433 6.40798 34.0597 5.94116 34.0256C4.66514 34.0256 3.38461 34.0256 2.10406 34.0256C0.294108 34 -0.46157 32.8749 0.271461 31.3236C2.38308 26.8687 4.49469 22.4166 6.6063 17.9674C6.75796 17.6777 6.83686 17.3591 6.83686 17.0362C6.83686 16.7133 6.75796 16.3946 6.6063 16.105C4.49318 11.6813 2.44793 7.21934 0.271461 2.82125C-0.493245 1.28277 0.538408 -0.161955 2.17189 0.0511314C2.78865 0.0804653 3.4068 0.0733276 4.02261 0.029802V0.029802Z" fill="white"/>
</svg>
