<svg width="287" height="36" viewBox="0 0 287 36" fill="none" xmlns="http://www.w3.org/2000/svg">
<path d="M0.8 0.749998H24.7V8.55H10.6V14.75H21V22.2H10.6V36H0.8V0.749998ZM28.8273 0.749998H38.6273V36H28.8273V0.749998ZM59.4082 26.05L53.5582 36H42.4082L53.8582 17.95L42.0082 0.749998H53.5582L60.2082 10.45L65.9082 0.749998H77.0582L65.7582 18.5L77.8082 36H66.2582L59.4082 26.05ZM103.721 8.6H90.9711V14.35H102.221V21.8H90.9711V28.15H103.721V36H81.1711V0.749998H103.721V8.6ZM122.514 0.749998C125.314 0.749998 127.847 1.18333 130.114 2.05C132.38 2.91666 134.314 4.13333 135.914 5.7C137.514 7.23333 138.747 9.08333 139.614 11.25C140.48 13.3833 140.914 15.75 140.914 18.35C140.914 20.9167 140.48 23.2833 139.614 25.45C138.747 27.5833 137.514 29.4333 135.914 31C134.314 32.5667 132.38 33.8 130.114 34.7C127.847 35.5667 125.314 36 122.514 36H108.564V0.749998H122.514ZM121.764 27.35C124.597 27.35 126.83 26.5833 128.464 25.05C130.13 23.5167 130.964 21.2833 130.964 18.35C130.964 15.4167 130.13 13.1667 128.464 11.6C126.83 10.0333 124.597 9.25 121.764 9.25H118.364V27.35H121.764ZM152.952 0.749998H181.452V8.55H172.052V36H162.252V8.55H152.952V0.749998ZM207.627 8.6H194.877V14.35H206.127V21.8H194.877V28.15H207.627V36H185.077V0.749998H207.627V8.6ZM231.12 12.6C231.12 11.5 230.787 10.6167 230.12 9.95C229.453 9.28333 228.453 8.95 227.12 8.95H222.27V16.3H227.12C229.787 16.3 231.12 15.0667 231.12 12.6ZM227.92 0.749998C230.12 0.749998 232.037 1.05 233.67 1.65C235.303 2.21667 236.67 3.01667 237.77 4.05C238.87 5.05 239.687 6.25 240.22 7.65C240.787 9.01667 241.07 10.4833 241.07 12.05C241.07 14.35 240.437 16.4333 239.17 18.3C237.903 20.1333 235.953 21.45 233.32 22.25L241.27 36H230.32L223.32 23H222.27V36H212.47V0.749998H227.92ZM245.527 0.749998H257.377L266.227 23.65L274.877 0.749998H286.677V36H276.877V16.55L270.227 36H262.027L255.327 16.4V36H245.527V0.749998Z" fill="white"/>
</svg>
