<svg width="317" height="36" viewBox="0 0 317 36" fill="none" xmlns="http://www.w3.org/2000/svg">
<path d="M15.33 8.15L15.0347 9.1054C15.0415 9.10752 15.0484 9.10956 15.0553 9.11152L15.33 8.15ZM18.27 9.56L17.6761 10.3646L17.6761 10.3646L18.27 9.56ZM20.34 11.84L19.4825 12.3545C19.487 12.362 19.4916 12.3695 19.4963 12.3769L20.34 11.84ZM21.51 14.81V15.81C21.8096 15.81 22.0934 15.6757 22.2833 15.444C22.4733 15.2123 22.5493 14.9077 22.4906 14.6139L21.51 14.81ZM15.18 14.81L14.3173 15.3157C14.4968 15.6219 14.8251 15.81 15.18 15.81V14.81ZM8.19 14.51L7.43742 13.8515L8.19 14.51ZM8.28 22.55L7.55042 23.234L7.55769 23.2416L8.28 22.55ZM16.68 21.17L17.5839 21.5977C17.7305 21.2879 17.7082 20.9246 17.5249 20.6351C17.3416 20.3455 17.0227 20.17 16.68 20.17V21.17ZM10.77 21.17H9.77C9.77 21.7223 10.2177 22.17 10.77 22.17V21.17ZM10.77 16.94V15.94C10.2177 15.94 9.77 16.3877 9.77 16.94H10.77ZM21.75 16.94H22.75C22.75 16.3877 22.3023 15.94 21.75 15.94V16.94ZM21.75 22.64L22.6752 23.0196C22.7246 22.8991 22.75 22.7702 22.75 22.64H21.75ZM20.4 24.98L19.5975 24.3833L19.5949 24.3868L20.4 24.98ZM18.3 27.05L17.7061 26.2454L17.6969 26.2523L18.3 27.05ZM15.42 28.58L15.7465 29.5252C15.7516 29.5234 15.7567 29.5216 15.7617 29.5198L15.42 28.58ZM7.29 28.37L6.91134 29.2956L6.92348 29.3004L7.29 28.37ZM3.9 26.15L3.18545 26.8497L3.19289 26.8571L3.9 26.15ZM1.71 22.73L0.774759 23.0843L0.779592 23.0965L1.71 22.73ZM1.71 14.06L0.779561 13.6935L0.776655 13.701L1.71 14.06ZM3.87 10.67L3.15549 9.97038L3.15533 9.97054L3.87 10.67ZM7.26 8.45L7.62656 9.38049L7.63863 9.37555L7.26 8.45ZM11.67 8.64C12.9259 8.64 14.0445 8.79935 15.0347 9.1054L15.6253 7.1946C14.4155 6.82065 13.0941 6.64 11.67 6.64V8.64ZM15.0553 9.11152C16.0736 9.40247 16.9428 9.82327 17.6761 10.3646L18.8639 8.75543C17.9172 8.05673 16.8264 7.53753 15.6047 7.18847L15.0553 9.11152ZM17.6761 10.3646C18.4094 10.9058 19.01 11.567 19.4825 12.3545L21.1975 11.3255C20.59 10.313 19.8106 9.4542 18.8639 8.75543L17.6761 10.3646ZM19.4963 12.3769C19.9852 13.1451 20.3318 14.018 20.5294 15.0061L22.4906 14.6139C22.2482 13.402 21.8148 12.2949 21.1837 11.3031L19.4963 12.3769ZM21.51 13.81H15.18V15.81H21.51V13.81ZM16.0427 14.3043C15.1414 12.7668 13.6036 12.07 11.7 12.07V14.07C13.0764 14.07 13.8586 14.5332 14.3173 15.3157L16.0427 14.3043ZM11.7 12.07C9.96748 12.07 8.50123 12.6357 7.43742 13.8515L8.94258 15.1685C9.55877 14.4643 10.4325 14.07 11.7 14.07V12.07ZM7.43742 13.8515C6.39854 15.0388 5.93 16.5851 5.93 18.38H7.93C7.93 16.9349 8.30147 15.9012 8.94258 15.1685L7.43742 13.8515ZM5.93 18.38C5.93 20.3558 6.41948 22.0276 7.55046 23.2339L9.00954 21.8661C8.34052 21.1524 7.93 20.0442 7.93 18.38H5.93ZM7.55769 23.2416C8.70554 24.4404 10.3367 24.96 12.27 24.96V22.96C10.6833 22.96 9.65446 22.5396 9.00231 21.8584L7.55769 23.2416ZM12.27 24.96C13.4539 24.96 14.5297 24.6911 15.4521 24.1076C16.3746 23.524 17.0779 22.6672 17.5839 21.5977L15.7761 20.7423C15.4021 21.5328 14.9304 22.071 14.3829 22.4174C13.8353 22.7638 13.1461 22.96 12.27 22.96V24.96ZM16.68 20.17H10.77V22.17H16.68V20.17ZM11.77 21.17V16.94H9.77V21.17H11.77ZM10.77 17.94H21.75V15.94H10.77V17.94ZM20.75 16.94V22.64H22.75V16.94H20.75ZM20.8248 22.2604C20.5409 22.9525 20.1351 23.6603 19.5975 24.3833L21.2025 25.5767C21.8249 24.7397 22.3191 23.8875 22.6752 23.0196L20.8248 22.2604ZM19.5949 24.3868C19.1003 25.0581 18.474 25.6787 17.7061 26.2454L18.8939 27.8546C19.806 27.1813 20.5797 26.4219 21.2051 25.5732L19.5949 24.3868ZM17.6969 26.2523C16.9666 26.8045 16.0973 27.2696 15.0783 27.6402L15.7617 29.5198C16.9427 29.0903 17.9934 28.5355 18.9031 27.8477L17.6969 26.2523ZM15.0935 27.6348C14.116 27.9725 12.989 28.15 11.7 28.15V30.15C13.171 30.15 14.524 29.9475 15.7465 29.5252L15.0935 27.6348ZM11.7 28.15C10.1878 28.15 8.84445 27.9076 7.65653 27.4396L6.92348 29.3004C8.37556 29.8724 9.97217 30.15 11.7 30.15V28.15ZM7.66863 27.4445C6.46249 26.951 5.44653 26.2823 4.60711 25.4429L3.19289 26.8571C4.23347 27.8977 5.47751 28.709 6.91137 29.2955L7.66863 27.4445ZM4.61451 25.4504C3.77318 24.5911 3.11421 23.5662 2.64041 22.3635L0.779592 23.0965C1.34579 24.5338 2.14682 25.7889 3.18549 26.8496L4.61451 25.4504ZM2.64516 22.3758C2.19284 21.1817 1.96 19.8533 1.96 18.38H-0.04C-0.04 20.0667 0.22716 21.6383 0.774841 23.0842L2.64516 22.3758ZM1.96 18.38C1.96 16.9064 2.19292 15.5901 2.64335 14.419L0.776655 13.701C0.227083 15.1299 -0.04 16.6936 -0.04 18.38H1.96ZM2.64041 14.4265C3.11534 13.2209 3.76524 12.2067 4.58467 11.3695L3.15533 9.97054C2.13476 11.0133 1.34466 12.2591 0.779592 13.6935L2.64041 14.4265ZM4.58451 11.3696C5.42058 10.5158 6.43 9.85177 7.62653 9.38041L6.89348 7.51959C5.45 8.08823 4.19942 8.90424 3.15549 9.97038L4.58451 11.3696ZM7.63863 9.37555C8.82322 8.89094 10.1623 8.64 11.67 8.64V6.64C9.93769 6.64 8.33678 6.92906 6.88137 7.52445L7.63863 9.37555ZM22.8251 7.85V6.85C22.4763 6.85 22.1527 7.03173 21.9712 7.32955C21.7897 7.62737 21.7764 7.99826 21.9363 8.30826L22.8251 7.85ZM29.5451 7.85L30.455 7.43519C30.2925 7.07874 29.9368 6.85 29.5451 6.85V7.85ZM33.2651 16.01L32.3552 16.4248C32.5177 16.7813 32.8733 17.01 33.2651 17.01C33.6568 17.01 34.0125 16.7813 34.175 16.4248L33.2651 16.01ZM36.9851 7.85V6.85C36.5933 6.85 36.2377 7.07874 36.0752 7.43519L36.9851 7.85ZM43.6151 7.85L44.5039 8.30826C44.6637 7.99826 44.6505 7.62737 44.469 7.32955C44.2874 7.03173 43.9639 6.85 43.6151 6.85V7.85ZM36.1751 22.28L35.2863 21.8217C35.2132 21.9634 35.1751 22.1206 35.1751 22.28H36.1751ZM36.1751 29V30C36.7274 30 37.1751 29.5523 37.1751 29H36.1751ZM30.2651 29H29.2651C29.2651 29.5523 29.7128 30 30.2651 30V29ZM30.2651 22.28H31.2651C31.2651 22.1206 31.227 21.9634 31.1539 21.8217L30.2651 22.28ZM22.8251 8.85H29.5451V6.85H22.8251V8.85ZM28.6352 8.26481L32.3552 16.4248L34.175 15.5952L30.455 7.43519L28.6352 8.26481ZM34.175 16.4248L37.895 8.26481L36.0752 7.43519L32.3552 15.5952L34.175 16.4248ZM36.9851 8.85H43.6151V6.85H36.9851V8.85ZM42.7263 7.39173L35.2863 21.8217L37.0639 22.7383L44.5039 8.30826L42.7263 7.39173ZM35.1751 22.28V29H37.1751V22.28H35.1751ZM36.1751 28H30.2651V30H36.1751V28ZM31.2651 29V22.28H29.2651V29H31.2651ZM31.1539 21.8217L23.7139 7.39173L21.9363 8.30826L29.3763 22.7383L31.1539 21.8217ZM45.4202 7.85V6.85C44.868 6.85 44.4202 7.29771 44.4202 7.85H45.4202ZM52.5302 7.85L53.463 7.48952C53.3141 7.10411 52.9434 6.85 52.5302 6.85V7.85ZM57.8402 21.59L56.9075 21.9505C57.0569 22.3372 57.4295 22.5916 57.844 22.59C58.2586 22.5884 58.6292 22.3312 58.7757 21.9434L57.8402 21.59ZM63.0302 7.85V6.85C62.6143 6.85 62.2417 7.1075 62.0947 7.49664L63.0302 7.85ZM70.1102 7.85H71.1102C71.1102 7.29771 70.6625 6.85 70.1102 6.85V7.85ZM70.1102 29V30C70.6625 30 71.1102 29.5523 71.1102 29H70.1102ZM64.2302 29H63.2302C63.2302 29.5523 63.678 30 64.2302 30V29ZM64.2302 17.33H65.2302C65.2302 16.841 64.8766 16.4237 64.3942 16.3435C63.9118 16.2633 63.4422 16.5438 63.284 17.0065L64.2302 17.33ZM60.2402 29V30C60.6678 30 61.0481 29.7281 61.1865 29.3235L60.2402 29ZM55.3202 29L54.374 29.3235C54.5123 29.7281 54.8926 30 55.3202 30V29ZM51.3002 17.24L52.2465 16.9165C52.0883 16.4538 51.6187 16.1734 51.1363 16.2535C50.6539 16.3337 50.3002 16.751 50.3002 17.24H51.3002ZM51.3002 29V30C51.8525 30 52.3002 29.5523 52.3002 29H51.3002ZM45.4202 29H44.4202C44.4202 29.5523 44.868 30 45.4202 30V29ZM45.4202 8.85H52.5302V6.85H45.4202V8.85ZM51.5975 8.21048L56.9075 21.9505L58.773 21.2295L53.463 7.48952L51.5975 8.21048ZM58.7757 21.9434L63.9657 8.20336L62.0947 7.49664L56.9047 21.2366L58.7757 21.9434ZM63.0302 8.85H70.1102V6.85H63.0302V8.85ZM69.1102 7.85V29H71.1102V7.85H69.1102ZM70.1102 28H64.2302V30H70.1102V28ZM65.2302 29V17.33H63.2302V29H65.2302ZM63.284 17.0065L59.294 28.6765L61.1865 29.3235L65.1765 17.6535L63.284 17.0065ZM60.2402 28H55.3202V30H60.2402V28ZM56.2665 28.6765L52.2465 16.9165L50.354 17.5635L54.374 29.3235L56.2665 28.6765ZM50.3002 17.24V29H52.3002V17.24H50.3002ZM51.3002 28H45.4202V30H51.3002V28ZM46.4202 29V7.85H44.4202V29H46.4202ZM79.2295 14.06L80.1629 14.419L80.1647 14.4142L79.2295 14.06ZM81.3595 10.67L82.0742 11.3695L82.0815 11.3619L81.3595 10.67ZM84.6595 8.45L85.0359 9.37649L85.0431 9.3735L84.6595 8.45ZM92.6695 8.21L92.3482 9.15698C92.3549 9.15925 92.3617 9.16145 92.3684 9.16358L92.6695 8.21ZM95.6695 9.77L95.0493 10.5545L95.0581 10.5613L95.6695 9.77ZM97.8595 12.26L96.999 12.7693C97.0031 12.7763 97.0073 12.7832 97.0115 12.79L97.8595 12.26ZM99.1495 15.5V16.5C99.4519 16.5 99.7381 16.3632 99.9279 16.1278C100.118 15.8924 100.191 15.5838 100.127 15.2882L99.1495 15.5ZM92.8195 15.5L91.9163 15.9291C92.0819 16.2778 92.4335 16.5 92.8195 16.5V15.5ZM91.2295 13.67L90.6926 14.5137L90.704 14.5208L91.2295 13.67ZM87.0595 13.43L87.4657 14.3438C87.4707 14.3416 87.4757 14.3393 87.4806 14.337L87.0595 13.43ZM85.6495 14.51L84.8813 13.8698L84.8786 13.8731L85.6495 14.51ZM84.7495 16.19L83.8008 15.8738C83.798 15.8825 83.7952 15.8912 83.7925 15.9L84.7495 16.19ZM85.6495 22.31L84.8749 22.9424C84.8796 22.9481 84.8843 22.9538 84.8892 22.9595L85.6495 22.31ZM91.2295 23.12L90.704 22.2691L90.6927 22.2763L91.2295 23.12ZM92.8195 21.29V20.29C92.4335 20.29 92.0819 20.5122 91.9163 20.8609L92.8195 21.29ZM99.1495 21.29L100.127 21.5018C100.191 21.2062 100.118 20.8976 99.9279 20.6622C99.7381 20.4268 99.4519 20.29 99.1495 20.29V21.29ZM97.8595 24.56L97.0067 24.0378L97.0036 24.0429L97.8595 24.56ZM95.6695 27.02L95.058 26.2287L95.0493 26.2356L95.6695 27.02ZM92.6695 28.61L92.9756 29.5621L92.9858 29.5587L92.6695 28.61ZM84.6595 28.37L84.2708 29.2914C84.2766 29.2938 84.2823 29.2962 84.2881 29.2985L84.6595 28.37ZM81.3595 26.15L80.6375 26.8419L80.6449 26.8495L81.3595 26.15ZM79.2295 22.73L80.1647 22.3758L79.2295 22.73ZM79.4795 18.38C79.4795 16.9064 79.7124 15.5901 80.1629 14.419L78.2962 13.701C77.7466 15.1299 77.4795 16.6936 77.4795 18.38H79.4795ZM80.1647 14.4142C80.6194 13.2137 81.2576 12.2038 82.0742 11.3695L80.6449 9.97054C79.6214 11.0162 78.8396 12.2663 78.2944 13.7058L80.1647 14.4142ZM82.0815 11.3619C82.9003 10.5075 83.8811 9.8456 85.0359 9.37646L84.2832 7.52353C82.8779 8.0944 81.6588 8.91246 80.6375 9.9781L82.0815 11.3619ZM85.0431 9.3735C86.2061 8.89044 87.5233 8.64 89.0095 8.64V6.64C87.2958 6.64 85.713 6.92956 84.2759 7.5265L85.0431 9.3735ZM89.0095 8.64C90.2328 8.64 91.343 8.81591 92.3482 9.15698L92.9908 7.26302C91.7561 6.84409 90.4262 6.64 89.0095 6.64V8.64ZM92.3684 9.16358C93.4031 9.49034 94.2928 9.95624 95.0493 10.5544L96.2898 8.98558C95.3263 8.22376 94.2159 7.64966 92.9707 7.25642L92.3684 9.16358ZM95.0581 10.5613C95.8355 11.162 96.4818 11.8956 96.999 12.7693L98.7201 11.7507C98.0772 10.6644 97.2635 9.73796 96.281 8.97871L95.0581 10.5613ZM97.0115 12.79C97.5454 13.6442 97.9346 14.615 98.1722 15.7118L100.127 15.2882C99.8445 13.985 99.3736 12.7958 98.7075 11.73L97.0115 12.79ZM99.1495 14.5H92.8195V16.5H99.1495V14.5ZM93.7228 15.0709C93.2694 14.1164 92.6164 13.3512 91.755 12.8192L90.704 14.5208C91.2027 14.8288 91.6097 15.2836 91.9163 15.9291L93.7228 15.0709ZM91.7664 12.8263C90.9265 12.2918 89.9653 12.04 88.9195 12.04V14.04C89.6338 14.04 90.2126 14.2081 90.6927 14.5137L91.7664 12.8263ZM88.9195 12.04C88.109 12.04 87.3432 12.1958 86.6384 12.523L87.4806 14.337C87.8958 14.1442 88.3701 14.04 88.9195 14.04V12.04ZM86.6534 12.5162C85.9653 12.822 85.3737 13.279 84.8813 13.8698L86.4178 15.1502C86.7254 14.781 87.0738 14.518 87.4657 14.3438L86.6534 12.5162ZM84.8786 13.8731C84.4082 14.4425 84.0535 15.1159 83.8008 15.8738L85.6982 16.5062C85.8856 15.9441 86.1309 15.4975 86.4205 15.1469L84.8786 13.8731ZM83.7925 15.9C83.5599 16.6677 83.4495 17.4971 83.4495 18.38H85.4495C85.4495 17.6629 85.5392 17.0323 85.7066 16.48L83.7925 15.9ZM83.4495 18.38C83.4495 20.1812 83.8907 21.7367 84.8749 22.9424L86.4242 21.6776C85.8084 20.9233 85.4495 19.8588 85.4495 18.38H83.4495ZM84.8892 22.9595C85.9152 24.1607 87.2926 24.75 88.9195 24.75V22.75C87.8264 22.75 87.0239 22.3793 86.4099 21.6605L84.8892 22.9595ZM88.9195 24.75C89.9653 24.75 90.9265 24.4981 91.7664 23.9637L90.6927 22.2763C90.2126 22.5819 89.6338 22.75 88.9195 22.75V24.75ZM91.755 23.9708C92.6164 23.4388 93.2694 22.6736 93.7228 21.7191L91.9163 20.8609C91.6097 21.5064 91.2027 21.9612 90.704 22.2692L91.755 23.9708ZM92.8195 22.29H99.1495V20.29H92.8195V22.29ZM98.1722 21.0782C97.9343 22.1761 97.5442 23.16 97.0067 24.0378L98.7124 25.0822C99.3749 24 99.8447 22.8039 100.127 21.5018L98.1722 21.0782ZM97.0036 24.0429C96.4869 24.8981 95.8395 25.6249 95.0581 26.2287L96.281 27.8113C97.2596 27.0551 98.0721 26.1419 98.7154 25.0771L97.0036 24.0429ZM95.0493 26.2356C94.2887 26.837 93.3938 27.3145 92.3533 27.6613L92.9858 29.5587C94.2253 29.1455 95.3304 28.563 96.2898 27.8044L95.0493 26.2356ZM92.3635 27.658C91.3537 27.9826 90.2382 28.15 89.0095 28.15V30.15C90.4209 30.15 91.7454 29.9574 92.9755 29.562L92.3635 27.658ZM89.0095 28.15C87.5188 28.15 86.1972 27.908 85.0309 27.4415L84.2881 29.2985C85.7219 29.872 87.3003 30.15 89.0095 30.15V28.15ZM85.0482 27.4486C83.8836 26.9573 82.8962 26.2904 82.0742 25.4505L80.6449 26.8495C81.6629 27.8896 82.8755 28.7027 84.2708 29.2914L85.0482 27.4486ZM82.0815 25.4581C81.2602 24.6011 80.62 23.5779 80.1647 22.3758L78.2944 23.0842C78.839 24.5221 79.6189 25.7789 80.6375 26.8419L82.0815 25.4581ZM80.1647 22.3758C79.7124 21.1817 79.4795 19.8533 79.4795 18.38H77.4795C77.4795 20.0667 77.7467 21.6383 78.2944 23.0842L80.1647 22.3758ZM114.984 20.51H115.984C115.984 19.9577 115.536 19.51 114.984 19.51V20.51ZM107.814 20.51V19.51C107.262 19.51 106.814 19.9577 106.814 20.51H107.814ZM107.814 29V30C108.366 30 108.814 29.5523 108.814 29H107.814ZM101.934 29H100.934C100.934 29.5523 101.382 30 101.934 30V29ZM101.934 7.85V6.85C101.382 6.85 100.934 7.29771 100.934 7.85H101.934ZM107.814 7.85H108.814C108.814 7.29771 108.366 6.85 107.814 6.85V7.85ZM107.814 15.8H106.814C106.814 16.3523 107.262 16.8 107.814 16.8V15.8ZM114.984 15.8V16.8C115.536 16.8 115.984 16.3523 115.984 15.8H114.984ZM114.984 7.85V6.85C114.432 6.85 113.984 7.29771 113.984 7.85H114.984ZM120.864 7.85H121.864C121.864 7.29771 121.416 6.85 120.864 6.85V7.85ZM120.864 29V30C121.416 30 121.864 29.5523 121.864 29H120.864ZM114.984 29H113.984C113.984 29.5523 114.432 30 114.984 30V29ZM114.984 19.51H107.814V21.51H114.984V19.51ZM106.814 20.51V29H108.814V20.51H106.814ZM107.814 28H101.934V30H107.814V28ZM102.934 29V7.85H100.934V29H102.934ZM101.934 8.85H107.814V6.85H101.934V8.85ZM106.814 7.85V15.8H108.814V7.85H106.814ZM107.814 16.8H114.984V14.8H107.814V16.8ZM115.984 15.8V7.85H113.984V15.8H115.984ZM114.984 8.85H120.864V6.85H114.984V8.85ZM119.864 7.85V29H121.864V7.85H119.864ZM120.864 28H114.984V30H120.864V28ZM115.984 29V20.51H113.984V29H115.984ZM144.329 22.76L143.411 22.3628L143.408 22.3694L144.329 22.76ZM142.019 26.18L141.319 25.4656L141.312 25.4729L142.019 26.18ZM138.599 28.43L138.965 29.3605L138.977 29.3555L138.599 28.43ZM130.139 28.43L129.76 29.3556L129.772 29.3604L130.139 28.43ZM126.689 26.18L127.389 25.4656L126.689 26.18ZM124.349 22.76L123.426 23.1456C123.428 23.1512 123.431 23.1567 123.433 23.1623L124.349 22.76ZM124.349 14L123.431 13.6028L123.428 13.6095L124.349 14ZM126.689 10.55L127.389 11.2644V11.2644L126.689 10.55ZM130.139 8.33L130.505 9.26049L130.517 9.25555L130.139 8.33ZM138.599 8.33L138.22 9.25563L138.232 9.26041L138.599 8.33ZM142.049 10.55L141.349 11.2644V11.2644L142.049 10.55ZM144.359 14L143.436 14.3856L143.438 14.3905L144.359 14ZM130.769 22.28L130.01 22.9308L130.017 22.9396L130.769 22.28ZM137.939 22.28L137.187 21.6204V21.6204L137.939 22.28ZM137.939 14.39L137.187 15.0496L137.194 15.0572L137.939 14.39ZM130.769 14.39L130.017 13.7304L130.016 13.7315L130.769 14.39ZM144.199 18.35C144.199 19.8265 143.932 21.1597 143.411 22.3628L145.247 23.1572C145.886 21.6803 146.199 20.0735 146.199 18.35H144.199ZM143.408 22.3694C142.897 23.5736 142.201 24.6021 141.319 25.4656L142.719 26.8944C143.797 25.8379 144.64 24.5864 145.249 23.1505L143.408 22.3694ZM141.312 25.4729C140.45 26.3343 139.424 27.0122 138.22 27.5045L138.977 29.3555C140.414 28.7678 141.667 27.9457 142.726 26.8871L141.312 25.4729ZM138.232 27.4996C137.036 27.971 135.751 28.21 134.369 28.21V30.21C135.987 30.21 137.522 29.929 138.965 29.3604L138.232 27.4996ZM134.369 28.21C132.987 28.21 131.702 27.971 130.505 27.4996L129.772 29.3604C131.216 29.929 132.751 30.21 134.369 30.21V28.21ZM130.517 27.5045C129.312 27.0114 128.273 26.3316 127.389 25.4656L125.989 26.8944C127.065 27.9484 128.325 28.7686 129.76 29.3555L130.517 27.5045ZM127.389 25.4656C126.504 24.5995 125.796 23.5669 125.264 22.3577L123.433 23.1623C124.062 24.5931 124.913 25.8405 125.989 26.8944L127.389 25.4656ZM125.271 22.3744C124.768 21.1684 124.509 19.8311 124.509 18.35H122.509C122.509 20.0689 122.81 21.6716 123.426 23.1456L125.271 22.3744ZM124.509 18.35C124.509 16.8905 124.767 15.575 125.269 14.3905L123.428 13.6095C122.811 15.065 122.509 16.6495 122.509 18.35H124.509ZM125.267 14.3972C125.798 13.1683 126.507 12.128 127.389 11.2644L125.989 9.83564C124.911 10.892 124.059 12.1517 123.431 13.6028L125.267 14.3972ZM127.389 11.2644C128.27 10.4011 129.305 9.73311 130.505 9.26041L129.772 7.39959C128.332 7.96689 127.068 8.77885 125.989 9.83564L127.389 11.2644ZM130.517 9.25555C131.711 8.76723 132.992 8.52 134.369 8.52V6.52C132.746 6.52 131.207 6.81277 129.76 7.40445L130.517 9.25555ZM134.369 8.52C135.746 8.52 137.027 8.76723 138.22 9.25555L138.977 7.40445C137.531 6.81277 135.992 6.52 134.369 6.52V8.52ZM138.232 9.26041C139.432 9.73311 140.468 10.4011 141.349 11.2644L142.749 9.83564C141.67 8.77885 140.405 7.96689 138.965 7.39959L138.232 9.26041ZM141.349 11.2644C142.228 12.1254 142.925 13.1616 143.436 14.3856L145.281 13.6144C144.673 12.1584 143.83 10.8946 142.749 9.83564L141.349 11.2644ZM143.438 14.3905C143.941 15.575 144.199 16.8905 144.199 18.35H146.199C146.199 16.6495 145.897 15.065 145.279 13.6095L143.438 14.3905ZM128.509 18.35C128.509 20.1624 128.976 21.7248 130.01 22.9308L131.528 21.6292C130.882 20.8752 130.509 19.8176 130.509 18.35H128.509ZM130.017 22.9396C131.102 24.1756 132.598 24.75 134.369 24.75V22.75C133.059 22.75 132.156 22.3444 131.52 21.6204L130.017 22.9396ZM134.369 24.75C136.124 24.75 137.608 24.1726 138.69 22.9396L137.187 21.6204C136.549 22.3474 135.654 22.75 134.369 22.75V24.75ZM138.69 22.9396C139.749 21.7338 140.229 20.168 140.229 18.35H138.229C138.229 19.812 137.849 20.8662 137.187 21.6204L138.69 22.9396ZM140.229 18.35C140.229 16.5003 139.753 14.9161 138.684 13.7228L137.194 15.0572C137.845 15.7839 138.229 16.8397 138.229 18.35H140.229ZM138.69 13.7304C137.608 12.4974 136.124 11.92 134.369 11.92V13.92C135.654 13.92 136.549 14.3226 137.187 15.0496L138.69 13.7304ZM134.369 11.92C132.598 11.92 131.102 12.4944 130.017 13.7304L131.52 15.0496C132.156 14.3256 133.059 13.92 134.369 13.92V11.92ZM130.016 13.7315C128.972 14.9251 128.509 16.5059 128.509 18.35H130.509C130.509 16.8341 130.886 15.7749 131.521 15.0485L130.016 13.7315ZM153.584 7.85V6.85C153.032 6.85 152.584 7.29771 152.584 7.85H153.584ZM160.694 7.85L161.627 7.48952C161.478 7.10411 161.107 6.85 160.694 6.85V7.85ZM166.004 21.59L165.072 21.9505C165.221 22.3372 165.594 22.5916 166.008 22.59C166.423 22.5884 166.793 22.3312 166.94 21.9434L166.004 21.59ZM171.194 7.85V6.85C170.778 6.85 170.406 7.1075 170.259 7.49664L171.194 7.85ZM178.274 7.85H179.274C179.274 7.29771 178.827 6.85 178.274 6.85V7.85ZM178.274 29V30C178.827 30 179.274 29.5523 179.274 29H178.274ZM172.394 29H171.394C171.394 29.5523 171.842 30 172.394 30V29ZM172.394 17.33H173.394C173.394 16.841 173.041 16.4237 172.558 16.3435C172.076 16.2633 171.606 16.5438 171.448 17.0065L172.394 17.33ZM168.404 29V30C168.832 30 169.212 29.7281 169.351 29.3235L168.404 29ZM163.484 29L162.538 29.3235C162.676 29.7281 163.057 30 163.484 30V29ZM159.464 17.24L160.411 16.9165C160.252 16.4538 159.783 16.1734 159.3 16.2535C158.818 16.3337 158.464 16.751 158.464 17.24H159.464ZM159.464 29V30C160.017 30 160.464 29.5523 160.464 29H159.464ZM153.584 29H152.584C152.584 29.5523 153.032 30 153.584 30V29ZM153.584 8.85H160.694V6.85H153.584V8.85ZM159.762 8.21048L165.072 21.9505L166.937 21.2295L161.627 7.48952L159.762 8.21048ZM166.94 21.9434L172.13 8.20336L170.259 7.49664L165.069 21.2366L166.94 21.9434ZM171.194 8.85H178.274V6.85H171.194V8.85ZM177.274 7.85V29H179.274V7.85H177.274ZM178.274 28H172.394V30H178.274V28ZM173.394 29V17.33H171.394V29H173.394ZM171.448 17.0065L167.458 28.6765L169.351 29.3235L173.341 17.6535L171.448 17.0065ZM168.404 28H163.484V30H168.404V28ZM164.431 28.6765L160.411 16.9165L158.518 17.5635L162.538 29.3235L164.431 28.6765ZM158.464 17.24V29H160.464V17.24H158.464ZM159.464 28H153.584V30H159.464V28ZM154.584 29V7.85H152.584V29H154.584ZM189.751 35.06L190.445 34.3392L190.444 34.3386L189.751 35.06ZM189.751 31.46L189.073 30.7252C189.068 30.7296 189.064 30.7341 189.059 30.7386L189.751 31.46ZM193.801 31.46L193.123 32.1948C193.128 32.199 193.132 32.2033 193.137 32.2074L193.801 31.46ZM193.801 35.06L193.137 34.3126C193.127 34.3213 193.118 34.3301 193.108 34.3392L193.801 35.06ZM201.721 22.76L200.804 22.3628L200.801 22.3694L201.721 22.76ZM199.411 26.18L198.712 25.4656L198.704 25.4729L199.411 26.18ZM195.991 28.43L196.358 29.3605L196.37 29.3555L195.991 28.43ZM187.531 28.43L187.153 29.3556L187.165 29.3604L187.531 28.43ZM184.081 26.18L184.781 25.4656L184.081 26.18ZM181.741 22.76L180.819 23.1456C180.821 23.1512 180.823 23.1567 180.826 23.1623L181.741 22.76ZM181.741 14L180.824 13.6028L180.821 13.6095L181.741 14ZM184.081 10.55L184.781 11.2644V11.2644L184.081 10.55ZM187.531 8.33L187.898 9.26049L187.91 9.25555L187.531 8.33ZM195.991 8.33L195.613 9.25563L195.625 9.26041L195.991 8.33ZM199.441 10.55L198.742 11.2644V11.2644L199.441 10.55ZM201.751 14L200.829 14.3856L200.831 14.3905L201.751 14ZM188.161 22.28L187.402 22.9308L187.41 22.9396L188.161 22.28ZM195.331 22.28L194.58 21.6204V21.6204L195.331 22.28ZM195.331 14.39L194.58 15.0496L194.587 15.0572L195.331 14.39ZM188.161 14.39L187.41 13.7304L187.409 13.7315L188.161 14.39ZM191.761 34.81C191.162 34.81 190.752 34.6352 190.445 34.3392L189.058 35.7808C189.79 36.4848 190.721 36.81 191.761 36.81V34.81ZM190.444 34.3386C190.149 34.0552 190.001 33.7196 190.001 33.26H188.001C188.001 34.2404 188.354 35.1048 189.059 35.7814L190.444 34.3386ZM190.001 33.26C190.001 32.8004 190.149 32.4648 190.444 32.1814L189.059 30.7386C188.354 31.4152 188.001 32.2796 188.001 33.26H190.001ZM190.43 32.1948C190.736 31.9122 191.15 31.74 191.761 31.74V29.74C190.733 29.74 189.807 30.0478 189.073 30.7252L190.43 32.1948ZM191.761 31.74C192.4 31.74 192.821 31.9164 193.123 32.1948L194.48 30.7252C193.741 30.0436 192.803 29.74 191.761 29.74V31.74ZM193.137 32.2074C193.464 32.4984 193.611 32.8268 193.611 33.26H195.611C195.611 32.2532 195.218 31.3816 194.466 30.7126L193.137 32.2074ZM193.611 33.26C193.611 33.6932 193.464 34.0216 193.137 34.3126L194.466 35.8074C195.218 35.1384 195.611 34.2668 195.611 33.26H193.611ZM193.108 34.3392C192.805 34.6307 192.389 34.81 191.761 34.81V36.81C192.814 36.81 193.758 36.4893 194.495 35.7808L193.108 34.3392ZM201.591 18.35C201.591 19.8265 201.324 21.1597 200.804 22.3628L202.639 23.1572C203.278 21.6803 203.591 20.0735 203.591 18.35H201.591ZM200.801 22.3694C200.29 23.5736 199.593 24.6021 198.712 25.4656L200.111 26.8944C201.19 25.8379 202.033 24.5864 202.642 23.1505L200.801 22.3694ZM198.704 25.4729C197.843 26.3343 196.816 27.0122 195.613 27.5045L196.37 29.3555C197.807 28.7678 199.06 27.9457 200.119 26.8871L198.704 25.4729ZM195.625 27.4996C194.428 27.971 193.143 28.21 191.761 28.21V30.21C193.38 30.21 194.915 29.929 196.358 29.3604L195.625 27.4996ZM191.761 28.21C190.38 28.21 189.095 27.971 187.898 27.4996L187.165 29.3604C188.608 29.929 190.143 30.21 191.761 30.21V28.21ZM187.91 27.5045C186.705 27.0114 185.665 26.3316 184.781 25.4656L183.382 26.8944C184.458 27.9484 185.718 28.7686 187.153 29.3555L187.91 27.5045ZM184.781 25.4656C183.897 24.5995 183.188 23.5669 182.657 22.3577L180.826 23.1623C181.455 24.5931 182.306 25.8405 183.382 26.8944L184.781 25.4656ZM182.664 22.3744C182.16 21.1684 181.901 19.8311 181.901 18.35H179.901C179.901 20.0689 180.203 21.6716 180.819 23.1456L182.664 22.3744ZM181.901 18.35C181.901 16.8905 182.16 15.575 182.662 14.3905L180.821 13.6095C180.203 15.065 179.901 16.6495 179.901 18.35H181.901ZM182.659 14.3972C183.191 13.1683 183.9 12.128 184.781 11.2644L183.382 9.83564C182.303 10.892 181.452 12.1517 180.824 13.6028L182.659 14.3972ZM184.781 11.2644C185.662 10.4011 186.698 9.73311 187.898 9.26041L187.165 7.39959C185.725 7.96689 184.46 8.77885 183.382 9.83564L184.781 11.2644ZM187.91 9.25555C189.104 8.76723 190.384 8.52 191.761 8.52V6.52C190.138 6.52 188.599 6.81277 187.153 7.40445L187.91 9.25555ZM191.761 8.52C193.138 8.52 194.419 8.76723 195.613 9.25555L196.37 7.40445C194.924 6.81277 193.384 6.52 191.761 6.52V8.52ZM195.625 9.26041C196.825 9.73311 197.86 10.4011 198.742 11.2644L200.141 9.83564C199.062 8.77885 197.798 7.96689 196.358 7.39959L195.625 9.26041ZM198.742 11.2644C199.621 12.1254 200.317 13.1616 200.829 14.3856L202.674 13.6144C202.066 12.1584 201.222 10.8946 200.141 9.83564L198.742 11.2644ZM200.831 14.3905C201.333 15.575 201.591 16.8905 201.591 18.35H203.591C203.591 16.6495 203.29 15.065 202.672 13.6095L200.831 14.3905ZM185.901 18.35C185.901 20.1624 186.368 21.7248 187.402 22.9308L188.921 21.6292C188.274 20.8752 187.901 19.8176 187.901 18.35H185.901ZM187.41 22.9396C188.494 24.1756 189.991 24.75 191.761 24.75V22.75C190.452 22.75 189.548 22.3444 188.913 21.6204L187.41 22.9396ZM191.761 24.75C193.517 24.75 195.001 24.1726 196.083 22.9396L194.58 21.6204C193.942 22.3474 193.046 22.75 191.761 22.75V24.75ZM196.083 22.9396C197.141 21.7338 197.621 20.168 197.621 18.35H195.621C195.621 19.812 195.242 20.8662 194.58 21.6204L196.083 22.9396ZM197.621 18.35C197.621 16.5003 197.145 14.9161 196.076 13.7228L194.587 15.0572C195.237 15.7839 195.621 16.8397 195.621 18.35H197.621ZM196.083 13.7304C195.001 12.4974 193.517 11.92 191.761 11.92V13.92C193.046 13.92 193.942 14.3226 194.58 15.0496L196.083 13.7304ZM191.761 11.92C189.991 11.92 188.494 12.4944 187.41 13.7304L188.913 15.0496C189.548 14.3256 190.452 13.92 191.761 13.92V11.92ZM187.409 13.7315C186.364 14.9251 185.901 16.5059 185.901 18.35H187.901C187.901 16.8341 188.278 15.7749 188.914 15.0485L187.409 13.7315ZM205.235 7.85V6.85C204.682 6.85 204.235 7.29771 204.235 7.85H205.235ZM211.115 7.85H212.115C212.115 7.29771 211.667 6.85 211.115 6.85V7.85ZM211.115 29V30C211.667 30 212.115 29.5523 212.115 29H211.115ZM205.235 29H204.235C204.235 29.5523 204.682 30 205.235 30V29ZM205.235 8.85H211.115V6.85H205.235V8.85ZM210.115 7.85V29H212.115V7.85H210.115ZM211.115 28H205.235V30H211.115V28ZM206.235 29V7.85H204.235V29H206.235ZM239.795 7.85H240.795C240.795 7.29771 240.348 6.85 239.795 6.85V7.85ZM239.795 29V30C240.348 30 240.795 29.5523 240.795 29H239.795ZM233.915 29L233.082 29.5523C233.267 29.8319 233.58 30 233.915 30V29ZM226.085 17.18L226.919 16.6277C226.675 16.2599 226.219 16.0952 225.797 16.2225C225.375 16.3497 225.085 16.7388 225.085 17.18H226.085ZM226.085 29V30C226.638 30 227.085 29.5523 227.085 29H226.085ZM220.205 29H219.205C219.205 29.5523 219.653 30 220.205 30V29ZM220.205 7.85V6.85C219.653 6.85 219.205 7.29771 219.205 7.85H220.205ZM226.085 7.85L226.922 7.30258C226.738 7.02018 226.423 6.85 226.085 6.85V7.85ZM233.915 19.82L233.079 20.3674C233.321 20.7375 233.777 20.9047 234.201 20.7783C234.625 20.652 234.915 20.2623 234.915 19.82H233.915ZM233.915 7.85V6.85C233.363 6.85 232.915 7.29771 232.915 7.85H233.915ZM238.795 7.85V29H240.795V7.85H238.795ZM239.795 28H233.915V30H239.795V28ZM234.749 28.4477L226.919 16.6277L225.252 17.7323L233.082 29.5523L234.749 28.4477ZM225.085 17.18V29H227.085V17.18H225.085ZM226.085 28H220.205V30H226.085V28ZM221.205 29V7.85H219.205V29H221.205ZM220.205 8.85H226.085V6.85H220.205V8.85ZM225.249 8.39742L233.079 20.3674L234.752 19.2726L226.922 7.30258L225.249 8.39742ZM234.915 19.82V7.85H232.915V19.82H234.915ZM233.915 8.85H239.795V6.85H233.915V8.85ZM256.795 8.15L256.5 9.1054C256.506 9.10752 256.513 9.10956 256.52 9.11152L256.795 8.15ZM259.735 9.56L259.141 10.3646V10.3646L259.735 9.56ZM261.805 11.84L260.947 12.3545C260.952 12.362 260.956 12.3695 260.961 12.3769L261.805 11.84ZM262.975 14.81V15.81C263.274 15.81 263.558 15.6757 263.748 15.444C263.938 15.2123 264.014 14.9077 263.955 14.6139L262.975 14.81ZM256.645 14.81L255.782 15.3157C255.962 15.6219 256.29 15.81 256.645 15.81V14.81ZM249.655 14.51L248.902 13.8515L249.655 14.51ZM249.745 22.55L249.015 23.234L249.023 23.2416L249.745 22.55ZM258.145 21.17L259.049 21.5977C259.195 21.2879 259.173 20.9246 258.99 20.6351C258.806 20.3455 258.488 20.17 258.145 20.17V21.17ZM252.235 21.17H251.235C251.235 21.7223 251.683 22.17 252.235 22.17V21.17ZM252.235 16.94V15.94C251.683 15.94 251.235 16.3877 251.235 16.94H252.235ZM263.215 16.94H264.215C264.215 16.3877 263.767 15.94 263.215 15.94V16.94ZM263.215 22.64L264.14 23.0196C264.189 22.8991 264.215 22.7702 264.215 22.64H263.215ZM261.865 24.98L261.062 24.3833L261.06 24.3868L261.865 24.98ZM259.765 27.05L259.171 26.2454L259.162 26.2523L259.765 27.05ZM256.885 28.58L257.211 29.5252C257.216 29.5234 257.222 29.5216 257.227 29.5198L256.885 28.58ZM248.755 28.37L248.376 29.2956L248.388 29.3004L248.755 28.37ZM245.365 26.15L244.65 26.8497L244.658 26.8571L245.365 26.15ZM243.175 22.73L242.24 23.0843L242.244 23.0965L243.175 22.73ZM243.175 14.06L242.244 13.6935L242.242 13.701L243.175 14.06ZM245.335 10.67L244.62 9.97038L244.62 9.97054L245.335 10.67ZM248.725 8.45L249.091 9.38049L249.103 9.37555L248.725 8.45ZM253.135 8.64C254.391 8.64 255.509 8.79935 256.5 9.1054L257.09 7.1946C255.88 6.82065 254.559 6.64 253.135 6.64V8.64ZM256.52 9.11152C257.538 9.40247 258.408 9.82327 259.141 10.3646L260.329 8.75543C259.382 8.05673 258.291 7.53753 257.07 7.18847L256.52 9.11152ZM259.141 10.3646C259.874 10.9058 260.475 11.567 260.947 12.3545L262.662 11.3255C262.055 10.313 261.275 9.4542 260.329 8.75543L259.141 10.3646ZM260.961 12.3769C261.45 13.1451 261.797 14.018 261.994 15.0061L263.955 14.6139C263.713 13.402 263.28 12.2949 262.648 11.3031L260.961 12.3769ZM262.975 13.81H256.645V15.81H262.975V13.81ZM257.508 14.3043C256.606 12.7668 255.068 12.07 253.165 12.07V14.07C254.541 14.07 255.323 14.5332 255.782 15.3157L257.508 14.3043ZM253.165 12.07C251.432 12.07 249.966 12.6357 248.902 13.8515L250.407 15.1685C251.024 14.4643 251.897 14.07 253.165 14.07V12.07ZM248.902 13.8515C247.863 15.0388 247.395 16.5851 247.395 18.38H249.395C249.395 16.9349 249.766 15.9012 250.407 15.1685L248.902 13.8515ZM247.395 18.38C247.395 20.3558 247.884 22.0276 249.015 23.2339L250.474 21.8661C249.805 21.1524 249.395 20.0442 249.395 18.38H247.395ZM249.023 23.2416C250.17 24.4404 251.802 24.96 253.735 24.96V22.96C252.148 22.96 251.119 22.5396 250.467 21.8584L249.023 23.2416ZM253.735 24.96C254.919 24.96 255.995 24.6911 256.917 24.1076C257.839 23.524 258.543 22.6672 259.049 21.5977L257.241 20.7423C256.867 21.5328 256.395 22.071 255.848 22.4174C255.3 22.7638 254.611 22.96 253.735 22.96V24.96ZM258.145 20.17H252.235V22.17H258.145V20.17ZM253.235 21.17V16.94H251.235V21.17H253.235ZM252.235 17.94H263.215V15.94H252.235V17.94ZM262.215 16.94V22.64H264.215V16.94H262.215ZM262.29 22.2604C262.006 22.9525 261.6 23.6603 261.062 24.3833L262.667 25.5767C263.29 24.7397 263.784 23.8875 264.14 23.0196L262.29 22.2604ZM261.06 24.3868C260.565 25.0581 259.939 25.6787 259.171 26.2454L260.359 27.8546C261.271 27.1813 262.045 26.4219 262.67 25.5732L261.06 24.3868ZM259.162 26.2523C258.431 26.8045 257.562 27.2696 256.543 27.6402L257.227 29.5198C258.408 29.0903 259.458 28.5355 260.368 27.8477L259.162 26.2523ZM256.558 27.6348C255.581 27.9725 254.454 28.15 253.165 28.15V30.15C254.636 30.15 255.989 29.9475 257.211 29.5252L256.558 27.6348ZM253.165 28.15C251.653 28.15 250.309 27.9076 249.121 27.4396L248.388 29.3004C249.84 29.8724 251.437 30.15 253.165 30.15V28.15ZM249.133 27.4445C247.927 26.951 246.911 26.2823 246.072 25.4429L244.658 26.8571C245.698 27.8977 246.942 28.709 248.376 29.2955L249.133 27.4445ZM246.079 25.4504C245.238 24.5911 244.579 23.5662 244.105 22.3635L242.244 23.0965C242.811 24.5338 243.612 25.7889 244.65 26.8496L246.079 25.4504ZM244.11 22.3758C243.658 21.1817 243.425 19.8533 243.425 18.38H241.425C241.425 20.0667 241.692 21.6383 242.24 23.0842L244.11 22.3758ZM243.425 18.38C243.425 16.9064 243.658 15.5901 244.108 14.419L242.242 13.701C241.692 15.1299 241.425 16.6936 241.425 18.38H243.425ZM244.105 14.4265C244.58 13.2209 245.23 12.2067 246.05 11.3695L244.62 9.97054C243.6 11.0133 242.81 12.2591 242.244 13.6935L244.105 14.4265ZM246.049 11.3696C246.885 10.5158 247.895 9.85177 249.091 9.38041L248.358 7.51959C246.915 8.08823 245.664 8.90424 244.62 9.97038L246.049 11.3696ZM249.103 9.37555C250.288 8.89094 251.627 8.64 253.135 8.64V6.64C251.403 6.64 249.802 6.92906 248.346 7.52445L249.103 9.37555ZM265.76 7.85V6.85C265.208 6.85 264.76 7.29771 264.76 7.85H265.76ZM271.61 7.85H272.61C272.61 7.29771 272.162 6.85 271.61 6.85V7.85ZM272.36 22.73L271.572 23.3456C271.576 23.3507 271.58 23.3556 271.584 23.3606L272.36 22.73ZM277.28 22.73L276.516 22.0851C276.512 22.0899 276.508 22.0946 276.504 22.0994L277.28 22.73ZM278.09 7.85V6.85C277.538 6.85 277.09 7.29771 277.09 7.85H278.09ZM281.72 7.85V8.85C281.77 8.85 281.819 8.8463 281.868 8.83894L281.72 7.85ZM282.68 7.52L283.235 8.35205V8.35205L282.68 7.52ZM283.25 6.95L284.094 7.48688C284.1 7.47601 284.107 7.465 284.114 7.45387L283.25 6.95ZM283.52 6.14L282.539 5.94389C282.535 5.96508 282.532 5.98641 282.529 6.00783L283.52 6.14ZM283.64 5.15V4.15C283.109 4.15 282.671 4.56461 282.641 5.09453L283.64 5.15ZM287.72 5.15L288.72 5.17777C288.727 4.90784 288.625 4.64635 288.437 4.45278C288.249 4.25921 287.99 4.15 287.72 4.15V5.15ZM286.76 8.63L287.58 9.20221L287.586 9.19334L286.76 8.63ZM283.97 10.4L283.724 9.43077C283.28 9.54338 282.97 9.94252 282.97 10.4H283.97ZM283.22 24.08L282.304 23.6783C282.302 23.6829 282.3 23.6874 282.298 23.6919L283.22 24.08ZM281.24 26.93L280.569 26.1885L281.24 26.93ZM278.27 28.64L277.954 27.6913L277.949 27.693L278.27 28.64ZM271.13 28.64L270.798 29.5833L270.803 29.5852L271.13 28.64ZM268.31 26.93L268.999 26.205L268.31 26.93ZM266.42 24.08L265.487 24.4401C265.489 24.4448 265.491 24.4495 265.493 24.4542L266.42 24.08ZM265.76 8.85H271.61V6.85H265.76V8.85ZM270.61 7.85V20.12H272.61V7.85H270.61ZM270.61 20.12C270.61 21.3646 270.893 22.4766 271.572 23.3456L273.148 22.1144C272.827 21.7034 272.61 21.0754 272.61 20.12H270.61ZM271.584 23.3606C272.356 24.3107 273.513 24.69 274.82 24.69V22.69C273.887 22.69 273.404 22.4293 273.136 22.0994L271.584 23.3606ZM274.82 24.69C276.126 24.69 277.284 24.3107 278.056 23.3606L276.504 22.0994C276.236 22.4293 275.753 22.69 274.82 22.69V24.69ZM278.044 23.3749C278.779 22.5044 279.09 21.381 279.09 20.12H277.09C277.09 21.059 276.861 21.6756 276.516 22.0851L278.044 23.3749ZM279.09 20.12V7.85H277.09V20.12H279.09ZM278.09 8.85H281.72V6.85H278.09V8.85ZM281.868 8.83894C282.359 8.76534 282.833 8.6195 283.235 8.35205L282.125 6.68795C282.046 6.7405 281.881 6.81466 281.572 6.86106L281.868 8.83894ZM283.235 8.35205C283.578 8.12308 283.871 7.83623 284.094 7.48688L282.406 6.41312C282.349 6.50377 282.262 6.59692 282.125 6.68795L283.235 8.35205ZM284.114 7.45387C284.326 7.08977 284.455 6.69149 284.511 6.27217L282.529 6.00783C282.505 6.18851 282.454 6.33023 282.386 6.44613L284.114 7.45387ZM284.501 6.33611C284.571 5.9824 284.616 5.60463 284.638 5.20547L282.641 5.09453C282.624 5.41537 282.589 5.6976 282.539 5.94389L284.501 6.33611ZM283.64 6.15H287.72V4.15H283.64V6.15ZM286.72 5.12223C286.684 6.43635 286.394 7.39154 285.934 8.06666L287.586 9.19334C288.326 8.10846 288.676 6.74365 288.72 5.17777L286.72 5.12223ZM285.94 8.05782C285.508 8.67685 284.809 9.1552 283.724 9.43077L284.216 11.3692C285.651 11.0048 286.812 10.3032 287.58 9.20218L285.94 8.05782ZM282.97 10.4V20.12H284.97V10.4H282.97ZM282.97 20.12C282.97 21.5095 282.738 22.6881 282.304 23.6783L284.136 24.4817C284.701 23.1919 284.97 21.7305 284.97 20.12H282.97ZM282.298 23.6919C281.87 24.7098 281.291 25.5353 280.569 26.1885L281.911 27.6715C282.869 26.8047 283.61 25.7302 284.142 24.4681L282.298 23.6919ZM280.569 26.1885C279.838 26.85 278.971 27.3524 277.954 27.6913L278.586 29.5887C279.849 29.1676 280.962 28.53 281.911 27.6715L280.569 26.1885ZM277.949 27.693C276.939 28.0357 275.858 28.21 274.7 28.21V30.21C276.062 30.21 277.361 30.0043 278.591 29.587L277.949 27.693ZM274.7 28.21C273.52 28.21 272.441 28.0351 271.456 27.6948L270.803 29.5852C272.018 30.0049 273.32 30.21 274.7 30.21V28.21ZM271.462 27.6967C270.51 27.3617 269.693 26.8642 268.999 26.205L267.621 27.655C268.527 28.5158 269.59 29.1583 270.798 29.5833L271.462 27.6967ZM268.999 26.205C268.314 25.5542 267.76 24.7284 267.347 23.7058L265.493 24.4542C266 25.7116 266.706 26.7858 267.621 27.655L268.999 26.205ZM267.353 23.7199C266.966 22.7176 266.76 21.524 266.76 20.12H264.76C264.76 21.716 264.994 23.1624 265.487 24.4401L267.353 23.7199ZM266.76 20.12V7.85H264.76V20.12H266.76ZM295.007 0.739999L295.515 -0.121689C295.046 -0.397497 294.444 -0.248711 294.157 0.213326L295.007 0.739999ZM300.407 3.92L301.249 4.45932C301.396 4.23052 301.443 3.95194 301.38 3.68766C301.317 3.42339 301.149 3.19619 300.915 3.05831L300.407 3.92ZM298.697 6.59L298.201 7.45795C298.663 7.72262 299.252 7.57808 299.539 7.12932L298.697 6.59ZM293.297 3.5L292.447 2.97333C292.304 3.20393 292.261 3.48268 292.328 3.74564C292.395 4.00861 292.565 4.23321 292.801 4.36795L293.297 3.5ZM307.307 22.76L306.39 22.3628L306.387 22.3694L307.307 22.76ZM304.997 26.18L304.298 25.4656L304.29 25.4729L304.997 26.18ZM301.577 28.43L301.944 29.3605L301.956 29.3555L301.577 28.43ZM293.117 28.43L292.739 29.3556L292.751 29.3604L293.117 28.43ZM289.667 26.18L290.367 25.4656L289.667 26.18ZM287.327 22.76L286.405 23.1456C286.407 23.1512 286.409 23.1567 286.412 23.1623L287.327 22.76ZM287.327 14L286.41 13.6028L286.407 13.6095L287.327 14ZM289.667 10.55L290.367 11.2644V11.2644L289.667 10.55ZM293.117 8.33L293.484 9.26049L293.496 9.25555L293.117 8.33ZM300.437 7.94L300.173 8.90433C300.259 8.928 300.348 8.94 300.437 8.94V7.94ZM300.707 7.94V8.94C300.719 8.94 300.73 8.9398 300.742 8.93941L300.707 7.94ZM302.117 7.7L301.755 6.76799L301.755 6.76799L302.117 7.7ZM303.347 6.26L302.374 6.03096C302.37 6.04927 302.366 6.06769 302.363 6.08621L303.347 6.26ZM303.497 5.15V4.15C302.964 4.15 302.525 4.56785 302.499 5.10006L303.497 5.15ZM307.577 5.15L308.577 5.17325C308.583 4.90407 308.481 4.64375 308.293 4.45116C308.104 4.25857 307.847 4.15 307.577 4.15V5.15ZM304.577 10.16L304.213 9.2289C303.887 9.35637 303.652 9.64446 303.592 9.98877C303.532 10.3331 303.657 10.6836 303.92 10.9134L304.577 10.16ZM307.187 13.7L306.278 14.1158C306.28 14.121 306.283 14.1262 306.285 14.1315L307.187 13.7ZM293.747 22.28L292.988 22.9308L292.996 22.9396L293.747 22.28ZM300.917 22.28L300.166 21.6204V21.6204L300.917 22.28ZM300.917 14.39L300.166 15.0496L300.173 15.0572L300.917 14.39ZM293.747 14.39L292.996 13.7304L292.995 13.7315L293.747 14.39ZM294.5 1.60169L299.9 4.78169L300.915 3.05831L295.515 -0.121689L294.5 1.60169ZM299.565 3.38068L297.855 6.05068L299.539 7.12932L301.249 4.45932L299.565 3.38068ZM299.194 5.72205L293.794 2.63205L292.801 4.36795L298.201 7.45795L299.194 5.72205ZM294.147 4.02667L295.857 1.26667L294.157 0.213326L292.447 2.97333L294.147 4.02667ZM307.177 18.35C307.177 19.8265 306.91 21.1597 306.39 22.3628L308.225 23.1572C308.864 21.6803 309.177 20.0735 309.177 18.35H307.177ZM306.387 22.3694C305.876 23.5736 305.179 24.6021 304.298 25.4656L305.697 26.8944C306.776 25.8379 307.619 24.5864 308.228 23.1505L306.387 22.3694ZM304.29 25.4729C303.429 26.3343 302.402 27.0122 301.199 27.5045L301.956 29.3555C303.393 28.7678 304.646 27.9457 305.704 26.8871L304.29 25.4729ZM301.211 27.4996C300.014 27.971 298.729 28.21 297.347 28.21V30.21C298.966 30.21 300.501 29.929 301.944 29.3604L301.211 27.4996ZM297.347 28.21C295.966 28.21 294.681 27.971 293.484 27.4996L292.751 29.3604C294.194 29.929 295.729 30.21 297.347 30.21V28.21ZM293.496 27.5045C292.291 27.0114 291.251 26.3316 290.367 25.4656L288.968 26.8944C290.044 27.9484 291.304 28.7686 292.739 29.3555L293.496 27.5045ZM290.367 25.4656C289.483 24.5995 288.774 23.5669 288.243 22.3577L286.412 23.1623C287.04 24.5931 287.892 25.8405 288.968 26.8944L290.367 25.4656ZM288.25 22.3744C287.746 21.1684 287.487 19.8311 287.487 18.35H285.487C285.487 20.0689 285.789 21.6716 286.405 23.1456L288.25 22.3744ZM287.487 18.35C287.487 16.8905 287.745 15.575 288.248 14.3905L286.407 13.6095C285.789 15.065 285.487 16.6495 285.487 18.35H287.487ZM288.245 14.3972C288.777 13.1683 289.485 12.128 290.367 11.2644L288.968 9.83564C287.889 10.892 287.038 12.1517 286.41 13.6028L288.245 14.3972ZM290.367 11.2644C291.248 10.4011 292.284 9.73311 293.484 9.26041L292.751 7.39959C291.311 7.96689 290.046 8.77885 288.968 9.83564L290.367 11.2644ZM293.496 9.25555C294.69 8.76723 295.97 8.52 297.347 8.52V6.52C295.724 6.52 294.185 6.81277 292.739 7.40445L293.496 9.25555ZM297.347 8.52C298.296 8.52 299.237 8.64759 300.173 8.90433L300.702 6.97567C299.597 6.67241 298.478 6.52 297.347 6.52V8.52ZM300.437 8.94H300.707V6.94H300.437V8.94ZM300.742 8.93941C301.383 8.91728 301.976 8.82777 302.48 8.632L301.755 6.76799C301.538 6.85223 301.191 6.92272 300.673 6.94059L300.742 8.93941ZM302.48 8.632C302.961 8.44498 303.394 8.16756 303.726 7.77018L302.189 6.48982C302.12 6.57244 301.994 6.67502 301.755 6.76799L302.48 8.632ZM303.726 7.77018C304.049 7.38252 304.245 6.92697 304.332 6.43379L302.363 6.08621C302.33 6.27303 302.266 6.39748 302.189 6.48982L303.726 7.77018ZM304.321 6.48904C304.416 6.08242 304.474 5.6517 304.496 5.19994L302.499 5.10006C302.481 5.4483 302.438 5.75758 302.374 6.03096L304.321 6.48904ZM303.497 6.15H307.577V4.15H303.497V6.15ZM306.578 5.12675C306.55 6.29826 306.311 7.1779 305.924 7.82376C305.546 8.45511 304.992 8.92355 304.213 9.2289L304.942 11.0911C306.103 10.6364 307.018 9.88989 307.64 8.85124C308.254 7.8271 308.544 6.58173 308.577 5.17325L306.578 5.12675ZM303.92 10.9134C304.907 11.775 305.694 12.8378 306.278 14.1158L308.097 13.2842C307.401 11.7622 306.448 10.465 305.235 9.40657L303.92 10.9134ZM306.285 14.1315C306.873 15.3608 307.177 16.7606 307.177 18.35H309.177C309.177 16.4994 308.822 14.7992 308.089 13.2685L306.285 14.1315ZM291.487 18.35C291.487 20.1624 291.954 21.7248 292.988 22.9308L294.507 21.6292C293.86 20.8752 293.487 19.8176 293.487 18.35H291.487ZM292.996 22.9396C294.08 24.1756 295.577 24.75 297.347 24.75V22.75C296.038 22.75 295.134 22.3444 294.499 21.6204L292.996 22.9396ZM297.347 24.75C299.103 24.75 300.587 24.1726 301.669 22.9396L300.166 21.6204C299.528 22.3474 298.632 22.75 297.347 22.75V24.75ZM301.669 22.9396C302.727 21.7338 303.207 20.168 303.207 18.35H301.207C301.207 19.812 300.828 20.8662 300.166 21.6204L301.669 22.9396ZM303.207 18.35C303.207 16.5003 302.731 14.9161 301.662 13.7228L300.173 15.0572C300.823 15.7839 301.207 16.8397 301.207 18.35H303.207ZM301.669 13.7304C300.587 12.4974 299.103 11.92 297.347 11.92V13.92C298.632 13.92 299.528 14.3226 300.166 15.0496L301.669 13.7304ZM297.347 11.92C295.577 11.92 294.08 12.4944 292.996 13.7304L294.499 15.0496C295.134 14.3256 296.038 13.92 297.347 13.92V11.92ZM292.995 13.7315C291.95 14.9251 291.487 16.5059 291.487 18.35H293.487C293.487 16.8341 293.864 15.7749 294.5 15.0485L292.995 13.7315ZM310.821 7.85V6.85C310.268 6.85 309.821 7.29771 309.821 7.85H310.821ZM316.701 7.85H317.701C317.701 7.29771 317.253 6.85 316.701 6.85V7.85ZM316.701 29V30C317.253 30 317.701 29.5523 317.701 29H316.701ZM310.821 29H309.821C309.821 29.5523 310.268 30 310.821 30V29ZM310.821 8.85H316.701V6.85H310.821V8.85ZM315.701 7.85V29H317.701V7.85H315.701ZM316.701 28H310.821V30H316.701V28ZM311.821 29V7.85H309.821V29H311.821Z" fill="#00A2C4"/>
</svg>
