<svg width="261" height="30" viewBox="0 0 261 30" fill="none" xmlns="http://www.w3.org/2000/svg">
<path d="M0.68 0.799998H23.48V7.04H15.96V29H8.12V7.04H0.68V0.799998ZM41.7806 17.68H32.2206V29H24.3806V0.799998H32.2206V11.4H41.7806V0.799998H49.6206V29H41.7806V17.68ZM70.1472 7.08H59.9472V11.68H68.9472V17.64H59.9472V22.72H70.1472V29H52.1072V0.799998H70.1472V7.08ZM103.798 0.799998V29H95.9575L85.5175 13.24V29H77.6775V0.799998H85.5175L95.9575 16.76V0.799998H103.798ZM124.303 7.08H114.103V11.68H123.103V17.64H114.103V22.72H124.303V29H106.263V0.799998H124.303V7.08ZM125.018 0.799998H133.498L136.778 20.08L141.218 0.799998H149.818L154.138 19.92L157.418 0.799998H165.898L158.978 29H149.338L145.458 11.72L141.498 29H131.858L125.018 0.799998ZM186.201 0.52C187.987 0.52 189.614 0.746666 191.081 1.2C192.574 1.62667 193.881 2.25333 195.001 3.08C196.121 3.90667 197.041 4.92 197.761 6.12C198.507 7.29333 199.027 8.61333 199.321 10.08H190.881C189.974 8.53333 188.427 7.76 186.241 7.76C184.241 7.76 182.681 8.4 181.561 9.68C180.441 10.96 179.881 12.68 179.881 14.84C179.881 17.2667 180.481 19.12 181.681 20.4C182.881 21.6533 184.654 22.28 187.001 22.28C189.747 22.28 191.707 21.04 192.881 18.56H185.001V12.92H199.641V20.52C199.214 21.56 198.614 22.6 197.841 23.64C197.094 24.6533 196.161 25.5733 195.041 26.4C193.947 27.2267 192.667 27.9067 191.201 28.44C189.734 28.9467 188.081 29.2 186.241 29.2C184.081 29.2 182.121 28.8533 180.361 28.16C178.601 27.44 177.094 26.4533 175.841 25.2C174.587 23.92 173.614 22.4 172.921 20.64C172.254 18.88 171.921 16.9467 171.921 14.84C171.921 12.7333 172.254 10.8133 172.921 9.08C173.614 7.32 174.574 5.81333 175.801 4.56C177.054 3.28 178.561 2.29333 180.321 1.6C182.081 0.879999 184.041 0.52 186.201 0.52ZM199.074 0.799998H208.034L212.994 11.68L217.954 0.799998H226.794L216.874 20.04V29H208.994V20.04L199.074 0.799998ZM227.201 0.799998H236.681L243.761 19.12L250.681 0.799998H260.121V29H252.281V13.44L246.961 29H240.401L235.041 13.32V29H227.201V0.799998Z" fill="#00A2C4"/>
</svg>
