<svg width="295" height="34" viewBox="0 0 295 34" fill="none" xmlns="http://www.w3.org/2000/svg">
<path d="M0.52 1.275V0.274998C-0.0322846 0.274998 -0.48 0.722713 -0.48 1.275H0.52ZM11.185 1.275L12.1178 0.914518C11.9688 0.529114 11.5982 0.274998 11.185 0.274998V1.275ZM19.15 21.885L18.2172 22.2455C18.3667 22.6322 18.7392 22.8866 19.1538 22.885C19.5684 22.8834 19.939 22.6262 20.0855 22.2384L19.15 21.885ZM26.935 1.275V0.274998C26.519 0.274998 26.1465 0.532503 25.9995 0.921637L26.935 1.275ZM37.555 1.275H38.555C38.555 0.722713 38.1073 0.274998 37.555 0.274998V1.275ZM37.555 33V34C38.1073 34 38.555 33.5523 38.555 33H37.555ZM28.735 33H27.735C27.735 33.5523 28.1827 34 28.735 34V33ZM28.735 15.495H29.735C29.735 15.006 29.3814 14.5887 28.899 14.5085C28.4166 14.4284 27.947 14.7088 27.7888 15.1715L28.735 15.495ZM22.75 33V34C23.1776 34 23.5579 33.7281 23.6962 33.3235L22.75 33ZM15.37 33L14.4238 33.3235C14.5621 33.7281 14.9424 34 15.37 34V33ZM9.34 15.36L10.2862 15.0365C10.1281 14.5738 9.65845 14.2934 9.17605 14.3735C8.69366 14.4537 8.34 14.871 8.34 15.36H9.34ZM9.34 33V34C9.89229 34 10.34 33.5523 10.34 33H9.34ZM0.52 33H-0.48C-0.48 33.5523 -0.0322846 34 0.52 34V33ZM0.52 2.275H11.185V0.274998H0.52V2.275ZM10.2522 1.63548L18.2172 22.2455L20.0828 21.5245L12.1178 0.914518L10.2522 1.63548ZM20.0855 22.2384L27.8705 1.62836L25.9995 0.921637L18.2145 21.5316L20.0855 22.2384ZM26.935 2.275H37.555V0.274998H26.935V2.275ZM36.555 1.275V33H38.555V1.275H36.555ZM37.555 32H28.735V34H37.555V32ZM29.735 33V15.495H27.735V33H29.735ZM27.7888 15.1715L21.8038 32.6765L23.6962 33.3235L29.6812 15.8185L27.7888 15.1715ZM22.75 32H15.37V34H22.75V32ZM16.3162 32.6765L10.2862 15.0365L8.39376 15.6835L14.4238 33.3235L16.3162 32.6765ZM8.34 15.36V33H10.34V15.36H8.34ZM9.34 32H0.52V34H9.34V32ZM1.52 33V1.275H-0.48V33H1.52ZM62.8707 8.34V9.34C63.423 9.34 63.8707 8.89228 63.8707 8.34H62.8707ZM51.3957 8.34V7.34C50.8434 7.34 50.3957 7.78771 50.3957 8.34H51.3957ZM51.3957 13.515H50.3957C50.3957 14.0673 50.8434 14.515 51.3957 14.515V13.515ZM61.5207 13.515H62.5207C62.5207 12.9627 62.073 12.515 61.5207 12.515V13.515ZM61.5207 20.22V21.22C62.073 21.22 62.5207 20.7723 62.5207 20.22H61.5207ZM51.3957 20.22V19.22C50.8434 19.22 50.3957 19.6677 50.3957 20.22H51.3957ZM51.3957 25.935H50.3957C50.3957 26.4873 50.8434 26.935 51.3957 26.935V25.935ZM62.8707 25.935H63.8707C63.8707 25.3827 63.423 24.935 62.8707 24.935V25.935ZM62.8707 33V34C63.423 34 63.8707 33.5523 63.8707 33H62.8707ZM42.5757 33H41.5757C41.5757 33.5523 42.0234 34 42.5757 34V33ZM42.5757 1.275V0.274998C42.0234 0.274998 41.5757 0.722713 41.5757 1.275H42.5757ZM62.8707 1.275H63.8707C63.8707 0.722713 63.423 0.274998 62.8707 0.274998V1.275ZM62.8707 7.34H51.3957V9.34H62.8707V7.34ZM50.3957 8.34V13.515H52.3957V8.34H50.3957ZM51.3957 14.515H61.5207V12.515H51.3957V14.515ZM60.5207 13.515V20.22H62.5207V13.515H60.5207ZM61.5207 19.22H51.3957V21.22H61.5207V19.22ZM50.3957 20.22V25.935H52.3957V20.22H50.3957ZM51.3957 26.935H62.8707V24.935H51.3957V26.935ZM61.8707 25.935V33H63.8707V25.935H61.8707ZM62.8707 32H42.5757V34H62.8707V32ZM43.5757 33V1.275H41.5757V33H43.5757ZM42.5757 2.275H62.8707V0.274998H42.5757V2.275ZM61.8707 1.275V8.34H63.8707V1.275H61.8707ZM67.229 1.275V0.274998C66.6767 0.274998 66.229 0.722713 66.229 1.275H67.229ZM77.894 1.275L78.8268 0.914518C78.6778 0.529114 78.3072 0.274998 77.894 0.274998V1.275ZM85.859 21.885L84.9262 22.2455C85.0757 22.6322 85.4482 22.8866 85.8628 22.885C86.2774 22.8834 86.648 22.6262 86.7945 22.2384L85.859 21.885ZM93.644 1.275V0.274998C93.228 0.274998 92.8555 0.532503 92.7085 0.921637L93.644 1.275ZM104.264 1.275H105.264C105.264 0.722713 104.816 0.274998 104.264 0.274998V1.275ZM104.264 33V34C104.816 34 105.264 33.5523 105.264 33H104.264ZM95.444 33H94.444C94.444 33.5523 94.8917 34 95.444 34V33ZM95.444 15.495H96.444C96.444 15.006 96.0903 14.5887 95.608 14.5085C95.1256 14.4284 94.656 14.7088 94.4978 15.1715L95.444 15.495ZM89.459 33V34C89.8866 34 90.2669 33.7281 90.4052 33.3235L89.459 33ZM82.079 33L81.1327 33.3235C81.2711 33.7281 81.6514 34 82.079 34V33ZM76.049 15.36L76.9952 15.0365C76.8371 14.5738 76.3674 14.2934 75.885 14.3735C75.4026 14.4537 75.049 14.871 75.049 15.36H76.049ZM76.049 33V34C76.6013 34 77.049 33.5523 77.049 33H76.049ZM67.229 33H66.229C66.229 33.5523 66.6767 34 67.229 34V33ZM67.229 2.275H77.894V0.274998H67.229V2.275ZM76.9612 1.63548L84.9262 22.2455L86.7918 21.5245L78.8268 0.914518L76.9612 1.63548ZM86.7945 22.2384L94.5795 1.62836L92.7085 0.921637L84.9235 21.5316L86.7945 22.2384ZM93.644 2.275H104.264V0.274998H93.644V2.275ZM103.264 1.275V33H105.264V1.275H103.264ZM104.264 32H95.444V34H104.264V32ZM96.444 33V15.495H94.444V33H96.444ZM94.4978 15.1715L88.5128 32.6765L90.4052 33.3235L96.3902 15.8185L94.4978 15.1715ZM89.459 32H82.079V34H89.459V32ZM83.0252 32.6765L76.9952 15.0365L75.1027 15.6835L81.1327 33.3235L83.0252 32.6765ZM75.049 15.36V33H77.049V15.36H75.049ZM76.049 32H67.229V34H76.049V32ZM68.229 33V1.275H66.229V33H68.229ZM125.665 20.895L124.998 21.6402C125.004 21.6459 125.011 21.6515 125.017 21.6569L125.665 20.895ZM118.105 20.13V19.13C117.552 19.13 117.105 19.5777 117.105 20.13H118.105ZM118.105 25.89H117.105C117.105 26.4423 117.552 26.89 118.105 26.89V25.89ZM118.105 8.295V7.295C117.552 7.295 117.105 7.74271 117.105 8.295H118.105ZM118.105 13.875H117.105C117.105 14.4273 117.552 14.875 118.105 14.875V13.875ZM109.285 33H108.285C108.285 33.5523 108.732 34 109.285 34V33ZM109.285 1.275V0.274998C108.732 0.274998 108.285 0.722713 108.285 1.275H109.285ZM132.1 3.435L131.481 4.22087C131.486 4.22459 131.491 4.22827 131.496 4.2319L132.1 3.435ZM133.36 14.235L132.59 13.5967C132.587 13.6004 132.584 13.6042 132.581 13.608L133.36 14.235ZM129.535 16.71L129.275 15.7444C128.831 15.8639 128.525 16.2708 128.535 16.7305C128.544 17.1901 128.866 17.5842 129.314 17.6854L129.535 16.71ZM132.055 17.79L131.492 18.6169C131.505 18.6255 131.518 18.6337 131.531 18.6417L132.055 17.79ZM133.99 19.545L133.185 20.1394C133.19 20.1451 133.194 20.1508 133.198 20.1564L133.99 19.545ZM135.16 21.795L134.208 22.101C134.212 22.1149 134.217 22.1287 134.222 22.1423L135.16 21.795ZM127.565 23.1C127.565 21.9169 127.184 20.8743 126.312 20.1331L125.017 21.6569C125.345 21.9357 125.565 22.3631 125.565 23.1H127.565ZM126.331 20.1498C125.515 19.419 124.415 19.13 123.19 19.13V21.13C124.125 21.13 124.675 21.351 124.998 21.6402L126.331 20.1498ZM123.19 19.13H118.105V21.13H123.19V19.13ZM117.105 20.13V25.89H119.105V20.13H117.105ZM118.105 26.89H123.235V24.89H118.105V26.89ZM123.235 26.89C124.46 26.89 125.565 26.637 126.374 25.959C127.218 25.2526 127.565 24.2352 127.565 23.1H125.565C125.565 23.8248 125.357 24.2024 125.09 24.426C124.789 24.678 124.229 24.89 123.235 24.89V26.89ZM126.89 11.13C126.89 9.98499 126.546 8.95784 125.705 8.24232C124.896 7.55302 123.788 7.295 122.56 7.295V9.295C123.551 9.295 124.109 9.50947 124.409 9.76518C124.678 9.99465 124.89 10.385 124.89 11.13H126.89ZM122.56 7.295H118.105V9.295H122.56V7.295ZM117.105 8.295V13.875H119.105V8.295H117.105ZM118.105 14.875H122.56V12.875H118.105V14.875ZM122.56 14.875C123.782 14.875 124.884 14.6271 125.693 13.9604C126.539 13.2632 126.89 12.2555 126.89 11.13H124.89C124.89 11.8345 124.685 12.1993 124.421 12.4171C124.12 12.6654 123.557 12.875 122.56 12.875V14.875ZM134.61 24.36C134.61 26.8076 133.794 28.6243 132.223 29.9378L133.506 31.4722C135.595 29.7257 136.61 27.3124 136.61 24.36H134.61ZM132.223 29.9378C130.637 31.2639 128.275 32 124.99 32V34C128.544 34 131.432 33.2061 133.506 31.4722L132.223 29.9378ZM124.99 32H109.285V34H124.99V32ZM110.285 33V1.275H108.285V33H110.285ZM109.285 2.275H124.495V0.274998H109.285V2.275ZM124.495 2.275C127.597 2.275 129.885 2.96491 131.481 4.22087L132.718 2.64913C130.654 1.02508 127.873 0.274998 124.495 0.274998V2.275ZM131.496 4.2319C133.071 5.42622 133.89 7.13607 133.89 9.51H135.89C135.89 6.60392 134.848 4.26378 132.704 2.6381L131.496 4.2319ZM133.89 9.51C133.89 11.2458 133.433 12.5805 132.59 13.5967L134.129 14.8733C135.327 13.4295 135.89 11.6142 135.89 9.51H133.89ZM132.581 13.608C131.727 14.6689 130.635 15.3781 129.275 15.7444L129.795 17.6756C131.554 17.2019 133.013 16.2611 134.139 14.862L132.581 13.608ZM129.314 17.6854C130.128 17.8693 130.851 18.181 131.492 18.6169L132.617 16.9631C131.758 16.379 130.801 15.9707 129.755 15.7346L129.314 17.6854ZM131.531 18.6417C132.209 19.0592 132.757 19.5591 133.185 20.1394L134.794 18.9506C134.203 18.1509 133.46 17.4808 132.579 16.9383L131.531 18.6417ZM133.198 20.1564C133.633 20.7195 133.971 21.3649 134.208 22.101L136.112 21.489C135.808 20.5451 135.366 19.6905 134.781 18.9336L133.198 20.1564ZM134.222 22.1423C134.479 22.8365 134.61 23.5735 134.61 24.36H136.61C136.61 23.3465 136.44 22.3735 136.097 21.4477L134.222 22.1423ZM159.77 8.34V9.34C160.322 9.34 160.77 8.89228 160.77 8.34H159.77ZM148.295 8.34V7.34C147.743 7.34 147.295 7.78771 147.295 8.34H148.295ZM148.295 13.515H147.295C147.295 14.0673 147.743 14.515 148.295 14.515V13.515ZM158.42 13.515H159.42C159.42 12.9627 158.972 12.515 158.42 12.515V13.515ZM158.42 20.22V21.22C158.972 21.22 159.42 20.7723 159.42 20.22H158.42ZM148.295 20.22V19.22C147.743 19.22 147.295 19.6677 147.295 20.22H148.295ZM148.295 25.935H147.295C147.295 26.4873 147.743 26.935 148.295 26.935V25.935ZM159.77 25.935H160.77C160.77 25.3827 160.322 24.935 159.77 24.935V25.935ZM159.77 33V34C160.322 34 160.77 33.5523 160.77 33H159.77ZM139.475 33H138.475C138.475 33.5523 138.923 34 139.475 34V33ZM139.475 1.275V0.274998C138.923 0.274998 138.475 0.722713 138.475 1.275H139.475ZM159.77 1.275H160.77C160.77 0.722713 160.322 0.274998 159.77 0.274998V1.275ZM159.77 7.34H148.295V9.34H159.77V7.34ZM147.295 8.34V13.515H149.295V8.34H147.295ZM148.295 14.515H158.42V12.515H148.295V14.515ZM157.42 13.515V20.22H159.42V13.515H157.42ZM158.42 19.22H148.295V21.22H158.42V19.22ZM147.295 20.22V25.935H149.295V20.22H147.295ZM148.295 26.935H159.77V24.935H148.295V26.935ZM158.77 25.935V33H160.77V25.935H158.77ZM159.77 32H139.475V34H159.77V32ZM140.475 33V1.275H138.475V33H140.475ZM139.475 2.275H159.77V0.274998H139.475V2.275ZM158.77 1.275V8.34H160.77V1.275H158.77ZM180.013 9.555L179.306 10.2621L180.013 9.555ZM172.948 8.655V7.655C172.396 7.655 171.948 8.10271 171.948 8.655H172.948ZM172.948 15.27H171.948C171.948 15.8223 172.396 16.27 172.948 16.27V15.27ZM183.208 2.085L182.864 3.02367C182.869 3.02575 182.875 3.02778 182.881 3.02976L183.208 2.085ZM186.898 4.245L186.214 4.97385C186.218 4.97758 186.222 4.98127 186.226 4.98494L186.898 4.245ZM189.103 7.485L188.169 7.84099C188.172 7.85005 188.176 7.85906 188.18 7.86801L189.103 7.485ZM188.158 17.07L188.981 17.6385L188.986 17.6315L188.158 17.07ZM182.893 20.625L182.603 19.6682C182.311 19.7569 182.075 19.9741 181.963 20.258C181.851 20.5418 181.875 20.8613 182.028 21.1255L182.893 20.625ZM190.048 33V34C190.406 34 190.736 33.8093 190.915 33.4997C191.093 33.1902 191.093 32.8088 190.914 32.4995L190.048 33ZM180.193 33L179.313 33.4741C179.487 33.798 179.826 34 180.193 34V33ZM173.893 21.3L174.774 20.8259C174.599 20.502 174.261 20.3 173.893 20.3V21.3ZM172.948 21.3V20.3C172.396 20.3 171.948 20.7477 171.948 21.3H172.948ZM172.948 33V34C173.501 34 173.948 33.5523 173.948 33H172.948ZM164.128 33H163.128C163.128 33.5523 163.576 34 164.128 34V33ZM164.128 1.275V0.274998C163.576 0.274998 163.128 0.722713 163.128 1.275H164.128ZM181.913 11.94C181.913 10.7325 181.539 9.66669 180.721 8.84789L179.306 10.2621C179.688 10.6433 179.913 11.1675 179.913 11.94H181.913ZM180.721 8.84789C179.867 7.99421 178.668 7.655 177.313 7.655V9.655C178.359 9.655 178.96 9.91579 179.306 10.2621L180.721 8.84789ZM177.313 7.655H172.948V9.655H177.313V7.655ZM171.948 8.655V15.27H173.948V8.655H171.948ZM172.948 16.27H177.313V14.27H172.948V16.27ZM177.313 16.27C178.649 16.27 179.837 15.9627 180.692 15.1716C181.562 14.3668 181.913 13.225 181.913 11.94H179.913C179.913 12.875 179.664 13.3982 179.334 13.7034C178.99 14.0222 178.378 14.27 177.313 14.27V16.27ZM178.033 2.275C179.926 2.275 181.529 2.53336 182.864 3.02367L183.553 1.14633C181.948 0.556632 180.101 0.274998 178.033 0.274998V2.275ZM182.881 3.02976C184.237 3.50036 185.34 4.15315 186.214 4.97385L187.583 3.51615C186.477 2.47685 185.12 1.68964 183.536 1.14024L182.881 3.02976ZM186.226 4.98494C187.099 5.77844 187.744 6.72657 188.169 7.84099L190.038 7.129C189.502 5.72342 188.678 4.51156 187.571 3.50506L186.226 4.98494ZM188.18 7.86801C188.636 8.96954 188.868 10.1586 188.868 11.445H190.868C190.868 9.91141 190.59 8.46046 190.027 7.10198L188.18 7.86801ZM188.868 11.445C188.868 13.319 188.356 14.9976 187.331 16.5085L188.986 17.6315C190.241 15.7824 190.868 13.711 190.868 11.445H188.868ZM187.336 16.5016C186.352 17.9254 184.809 18.998 182.603 19.6682L183.184 21.5818C185.718 20.812 187.685 19.5146 188.981 17.6384L187.336 16.5016ZM182.028 21.1255L189.183 33.5005L190.914 32.4995L183.759 20.1245L182.028 21.1255ZM190.048 32H180.193V34H190.048V32ZM181.074 32.5259L174.774 20.8259L173.013 21.7741L179.313 33.4741L181.074 32.5259ZM173.893 20.3H172.948V22.3H173.893V20.3ZM171.948 21.3V33H173.948V21.3H171.948ZM172.948 32H164.128V34H172.948V32ZM165.128 33V1.275H163.128V33H165.128ZM164.128 2.275H178.033V0.274998H164.128V2.275ZM216.874 27.285L215.962 26.8746C215.96 26.881 215.957 26.8874 215.954 26.8939L216.874 27.285ZM214.579 30.435L215.241 31.1848L214.579 30.435ZM210.844 32.55L210.517 31.6052L210.511 31.6074L210.844 32.55ZM200.899 32.685L200.635 33.6493L200.899 32.685ZM196.849 30.795L196.243 31.59C196.25 31.5959 196.258 31.6016 196.266 31.6073L196.849 30.795ZM194.104 27.6L194.981 27.1197L194.104 27.6ZM192.934 23.145V22.145C192.66 22.145 192.398 22.2577 192.209 22.4567C192.02 22.6557 191.921 22.9236 191.936 23.1976L192.934 23.145ZM202.339 23.145L203.337 23.0702C203.297 22.5484 202.863 22.145 202.339 22.145V23.145ZM203.374 25.665L202.75 26.4459C202.764 26.4572 202.778 26.4682 202.793 26.4787L203.374 25.665ZM207.514 25.755L208.1 26.5657L207.514 25.755ZM207.154 22.065L206.592 22.8919C206.605 22.9005 206.617 22.9087 206.63 22.9167L207.154 22.065ZM204.319 20.715L203.974 21.6533C203.981 21.656 203.988 21.6586 203.996 21.6612L204.319 20.715ZM200.584 19.41L200.262 20.3565L200.268 20.3587L200.584 19.41ZM196.894 17.655L196.335 18.4836C196.343 18.4894 196.352 18.495 196.36 18.5005L196.894 17.655ZM194.104 14.82L193.262 15.3597L193.269 15.3696L194.104 14.82ZM193.024 10.32L194.024 10.3364C194.024 10.3309 194.024 10.3255 194.024 10.32H193.024ZM193.924 6.225L193.039 5.76014L193.035 5.76868L193.924 6.225ZM196.444 3.21L195.844 2.40992L195.834 2.41822L196.444 3.21ZM200.224 1.41L200.486 2.37523C200.492 2.37354 200.498 2.3718 200.504 2.37L200.224 1.41ZM209.854 1.455L209.562 2.4112C209.569 2.41355 209.577 2.4158 209.585 2.41796L209.854 1.455ZM213.679 3.345L213.055 4.12594L213.065 4.13435L213.679 3.345ZM216.199 6.45L215.301 6.88842C215.303 6.89427 215.306 6.90009 215.309 6.90587L216.199 6.45ZM217.279 10.635V11.635C217.555 11.635 217.818 11.5216 218.007 11.3214C218.195 11.1213 218.294 10.8522 218.278 10.5774L217.279 10.635ZM207.694 10.635L206.696 10.6955C206.728 11.2233 207.166 11.635 207.694 11.635V10.635ZM206.794 8.475L206.13 9.22241C206.138 9.22947 206.146 9.23641 206.154 9.24322L206.794 8.475ZM204.769 7.755L204.724 8.75397C204.739 8.75465 204.754 8.755 204.769 8.755V7.755ZM203.104 8.295L203.729 9.07587C203.739 9.06767 203.749 9.05928 203.759 9.05069L203.104 8.295ZM203.554 11.94L202.992 12.7669C203 12.7721 203.007 12.7773 203.015 12.7823L203.554 11.94ZM206.389 13.335L206.022 14.2652C206.029 14.268 206.036 14.2707 206.044 14.2733L206.389 13.335ZM210.034 14.685L209.686 15.6222C209.694 15.6254 209.703 15.6285 209.712 15.6315L210.034 14.685ZM213.724 16.44L214.258 15.5945L213.724 16.44ZM216.559 19.185L215.731 19.7449V19.7449L216.559 19.185ZM216.684 23.37C216.684 24.6488 216.44 25.8127 215.962 26.8746L217.786 27.6954C218.388 26.3573 218.684 24.9112 218.684 23.37H216.684ZM215.954 26.8939C215.505 27.9505 214.831 28.8795 213.918 29.6852L215.241 31.1848C216.368 30.1905 217.224 29.0195 217.795 27.6761L215.954 26.8939ZM213.918 29.6852C213.008 30.4876 211.881 31.1318 210.517 31.6052L211.172 33.4948C212.748 32.9482 214.11 32.1824 215.241 31.1848L213.918 29.6852ZM210.511 31.6074C209.2 32.0716 207.652 32.315 205.849 32.315V34.315C207.827 34.315 209.609 34.0484 211.178 33.4926L210.511 31.6074ZM205.849 32.315C204.159 32.315 202.599 32.1144 201.164 31.7207L200.635 33.6493C202.26 34.0956 204 34.315 205.849 34.315V32.315ZM201.164 31.7207C199.737 31.3289 198.497 30.7468 197.433 29.9827L196.266 31.6073C197.542 32.5232 199.002 33.2011 200.635 33.6493L201.164 31.7207ZM197.456 30C196.427 29.215 195.604 28.2573 194.981 27.1197L193.227 28.0803C193.984 29.4627 194.991 30.635 196.243 31.59L197.456 30ZM194.981 27.1197C194.376 26.0142 194.017 24.681 193.933 23.0924L191.936 23.1976C192.032 25.029 192.453 26.6658 193.227 28.0803L194.981 27.1197ZM192.934 24.145H202.339V22.145H192.934V24.145ZM201.342 23.2198C201.441 24.5428 201.836 25.7151 202.75 26.4459L203.999 24.8841C203.712 24.6549 203.417 24.1472 203.337 23.0702L201.342 23.2198ZM202.793 26.4787C203.601 27.0557 204.526 27.34 205.534 27.34V25.34C204.923 25.34 204.408 25.1743 203.956 24.8513L202.793 26.4787ZM205.534 27.34C206.488 27.34 207.362 27.0988 208.1 26.5657L206.929 24.9443C206.587 25.1912 206.141 25.34 205.534 25.34V27.34ZM208.1 26.5657C208.936 25.9619 209.324 25.0694 209.324 24.045H207.324C207.324 24.5206 207.173 24.7681 206.929 24.9443L208.1 26.5657ZM209.324 24.045C209.324 22.8217 208.722 21.8556 207.678 21.2133L206.63 22.9167C207.147 23.2344 207.324 23.5883 207.324 24.045H209.324ZM207.717 21.2381C206.873 20.6645 205.842 20.1789 204.643 19.7688L203.996 21.6612C205.077 22.0311 205.936 22.4455 206.592 22.8919L207.717 21.2381ZM204.665 19.7767C203.514 19.3525 202.259 18.9141 200.901 18.4613L200.268 20.3587C201.61 20.8059 202.845 21.2375 203.974 21.6533L204.665 19.7767ZM200.907 18.4635C199.659 18.0379 198.5 17.4863 197.428 16.8095L196.36 18.5005C197.569 19.2637 198.87 19.8821 200.262 20.3565L200.907 18.4635ZM197.454 16.8264C196.456 16.1517 195.619 15.3022 194.94 14.2704L193.269 15.3696C194.09 16.6178 195.113 17.6583 196.335 18.4836L197.454 16.8264ZM194.946 14.2803C194.331 13.3212 193.996 12.0309 194.024 10.3364L192.025 10.3036C191.992 12.2691 192.377 13.9788 193.262 15.3597L194.946 14.2803ZM194.024 10.32C194.024 8.88925 194.299 7.68605 194.814 6.68132L193.035 5.76868C192.35 7.10394 192.024 8.63074 192.024 10.32H194.024ZM194.81 6.68983C195.374 5.61442 196.122 4.72186 197.055 4.00178L195.834 2.41822C194.667 3.31813 193.734 4.43558 193.039 5.76017L194.81 6.68983ZM197.044 4.01C198.013 3.28363 199.155 2.73558 200.486 2.37523L199.963 0.444773C198.414 0.864415 197.036 1.51636 195.844 2.41L197.044 4.01ZM200.504 2.37C201.843 1.97949 203.308 1.78 204.904 1.78V-0.220001C203.141 -0.220001 201.486 0.000504017 199.944 0.449999L200.504 2.37ZM204.904 1.78C206.653 1.78 208.203 1.99515 209.562 2.4112L210.147 0.498798C208.566 0.0148518 206.815 -0.220001 204.904 -0.220001V1.78ZM209.585 2.41796C210.976 2.80742 212.125 3.38204 213.055 4.12587L214.304 2.56413C213.134 1.62796 211.733 0.942579 210.124 0.492034L209.585 2.41796ZM213.065 4.13435C214.025 4.88062 214.768 5.79557 215.301 6.88842L217.098 6.01157C216.431 4.64443 215.494 3.48938 214.293 2.55565L213.065 4.13435ZM215.309 6.90587C215.868 7.99688 216.198 9.2533 216.281 10.6926L218.278 10.5774C218.181 8.8967 217.791 7.36312 217.089 5.99412L215.309 6.90587ZM217.279 9.635H207.694V11.635H217.279V9.635ZM208.693 10.5745C208.623 9.42487 208.261 8.39573 207.435 7.70678L206.154 9.24322C206.407 9.45427 206.646 9.86513 206.696 10.6955L208.693 10.5745ZM207.459 7.72759C206.713 7.0649 205.792 6.755 204.769 6.755V8.755C205.366 8.755 205.796 8.9251 206.13 9.22241L207.459 7.72759ZM204.815 6.75603C203.929 6.71578 203.115 6.96251 202.449 7.53931L203.759 9.05069C203.994 8.84749 204.289 8.73422 204.724 8.75397L204.815 6.75603ZM202.48 7.51413C201.716 8.12545 201.429 9.03572 201.429 10.005H203.429C203.429 9.41428 203.593 9.18455 203.729 9.07587L202.48 7.51413ZM201.429 10.005C201.429 11.1739 202.02 12.1058 202.992 12.7669L204.117 11.1131C203.589 10.7542 203.429 10.3961 203.429 10.005H201.429ZM203.015 12.7823C203.836 13.3073 204.843 13.7996 206.022 14.2652L206.757 12.4048C205.656 11.9704 204.773 11.5327 204.093 11.0977L203.015 12.7823ZM206.044 14.2733C207.183 14.6929 208.397 15.1425 209.686 15.6222L210.383 13.7478C209.092 13.2675 207.876 12.8171 206.735 12.3967L206.044 14.2733ZM209.712 15.6315C210.96 16.0571 212.119 16.6087 213.19 17.2855L214.258 15.5945C213.05 14.8313 211.749 14.2129 210.357 13.7385L209.712 15.6315ZM213.19 17.2855C214.214 17.9322 215.059 18.7502 215.731 19.7449L217.388 18.6251C216.56 17.3998 215.514 16.3878 214.258 15.5945L213.19 17.2855ZM215.731 19.7449C216.344 20.6519 216.684 21.8387 216.684 23.37H218.684C218.684 21.5413 218.275 19.9381 217.388 18.6251L215.731 19.7449ZM241.36 20.265H242.36C242.36 19.7127 241.912 19.265 241.36 19.265V20.265ZM230.605 20.265V19.265C230.052 19.265 229.605 19.7127 229.605 20.265H230.605ZM230.605 33V34C231.157 34 231.605 33.5523 231.605 33H230.605ZM221.785 33H220.785C220.785 33.5523 221.232 34 221.785 34V33ZM221.785 1.275V0.274998C221.232 0.274998 220.785 0.722713 220.785 1.275H221.785ZM230.605 1.275H231.605C231.605 0.722713 231.157 0.274998 230.605 0.274998V1.275ZM230.605 13.2H229.605C229.605 13.7523 230.052 14.2 230.605 14.2V13.2ZM241.36 13.2V14.2C241.912 14.2 242.36 13.7523 242.36 13.2H241.36ZM241.36 1.275V0.274998C240.807 0.274998 240.36 0.722713 240.36 1.275H241.36ZM250.18 1.275H251.18C251.18 0.722713 250.732 0.274998 250.18 0.274998V1.275ZM250.18 33V34C250.732 34 251.18 33.5523 251.18 33H250.18ZM241.36 33H240.36C240.36 33.5523 240.807 34 241.36 34V33ZM241.36 19.265H230.605V21.265H241.36V19.265ZM229.605 20.265V33H231.605V20.265H229.605ZM230.605 32H221.785V34H230.605V32ZM222.785 33V1.275H220.785V33H222.785ZM221.785 2.275H230.605V0.274998H221.785V2.275ZM229.605 1.275V13.2H231.605V1.275H229.605ZM230.605 14.2H241.36V12.2H230.605V14.2ZM242.36 13.2V1.275H240.36V13.2H242.36ZM241.36 2.275H250.18V0.274998H241.36V2.275ZM249.18 1.275V33H251.18V1.275H249.18ZM250.18 32H241.36V34H250.18V32ZM242.36 33V20.265H240.36V33H242.36ZM255.227 1.275V0.274998C254.675 0.274998 254.227 0.722713 254.227 1.275H255.227ZM264.047 1.275H265.047C265.047 0.722713 264.599 0.274998 264.047 0.274998V1.275ZM264.047 33V34C264.599 34 265.047 33.5523 265.047 33H264.047ZM255.227 33H254.227C254.227 33.5523 254.675 34 255.227 34V33ZM255.227 2.275H264.047V0.274998H255.227V2.275ZM263.047 1.275V33H265.047V1.275H263.047ZM264.047 32H255.227V34H264.047V32ZM256.227 33V1.275H254.227V33H256.227ZM284.28 14.37L285.005 15.0587C285.01 15.0529 285.016 15.0469 285.021 15.0409L284.28 14.37ZM277.89 8.385V7.385C277.338 7.385 276.89 7.83271 276.89 8.385H277.89ZM277.89 15.27H276.89C276.89 15.8223 277.338 16.27 277.89 16.27V15.27ZM293.415 15.81L292.48 15.454V15.454L293.415 15.81ZM291.21 19.14L290.514 18.4221L291.21 19.14ZM287.475 21.435L287.12 20.5002L287.113 20.5026L287.475 21.435ZM277.89 22.29V21.29C277.338 21.29 276.89 21.7377 276.89 22.29H277.89ZM277.89 33V34C278.442 34 278.89 33.5523 278.89 33H277.89ZM269.07 33H268.07C268.07 33.5523 268.518 34 269.07 34V33ZM269.07 1.275V0.274998C268.518 0.274998 268.07 0.722713 268.07 1.275H269.07ZM287.43 2.085L287.085 3.02367C287.093 3.02646 287.1 3.02916 287.108 3.03177L287.43 2.085ZM291.165 4.29L290.469 5.0079C290.472 5.01158 290.476 5.01523 290.48 5.01885L291.165 4.29ZM293.37 7.62L292.433 7.96873C292.435 7.97507 292.437 7.98137 292.44 7.98766L293.37 7.62ZM281.4 16.27C282.857 16.27 284.156 15.9524 285.005 15.0587L283.555 13.6812C283.264 13.9876 282.642 14.27 281.4 14.27V16.27ZM285.021 15.0409C285.795 14.1863 286.135 13.0869 286.135 11.85H284.135C284.135 12.7131 283.905 13.2937 283.538 13.6991L285.021 15.0409ZM286.135 11.85C286.135 10.6131 285.795 9.51371 285.021 8.65909L283.538 10.0009C283.905 10.4063 284.135 10.9869 284.135 11.85H286.135ZM285.021 8.65909C284.175 7.72322 282.869 7.385 281.4 7.385V9.385C282.63 9.385 283.245 9.67678 283.538 10.0009L285.021 8.65909ZM281.4 7.385H277.89V9.385H281.4V7.385ZM276.89 8.385V15.27H278.89V8.385H276.89ZM277.89 16.27H281.4V14.27H277.89V16.27ZM293.135 11.85C293.135 13.1112 292.916 14.3104 292.48 15.454L294.349 16.166C294.874 14.7896 295.135 13.3487 295.135 11.85H293.135ZM292.48 15.454C292.054 16.5742 291.401 17.5615 290.514 18.4221L291.906 19.8579C292.998 18.7985 293.816 17.5658 294.349 16.166L292.48 15.454ZM290.514 18.4221C289.636 19.2731 288.513 19.9707 287.12 20.5002L287.83 22.3698C289.437 21.7593 290.804 20.9269 291.906 19.8579L290.514 18.4221ZM287.113 20.5026C285.785 21.0175 284.174 21.29 282.255 21.29V23.29C284.356 23.29 286.224 22.9925 287.836 22.3674L287.113 20.5026ZM282.255 21.29H277.89V23.29H282.255V21.29ZM276.89 22.29V33H278.89V22.29H276.89ZM277.89 32H269.07V34H277.89V32ZM270.07 33V1.275H268.07V33H270.07ZM269.07 2.275H282.255V0.274998H269.07V2.275ZM282.255 2.275C284.147 2.275 285.75 2.53336 287.085 3.02367L287.775 1.14633C286.169 0.556632 284.323 0.274998 282.255 0.274998V2.275ZM287.108 3.03177C288.489 3.50121 289.6 4.16525 290.469 5.0079L291.861 3.5721C290.75 2.49475 289.371 1.68879 287.752 1.13823L287.108 3.03177ZM290.48 5.01885C291.356 5.84185 292.006 6.82121 292.433 7.96873L294.307 7.27127C293.774 5.83879 292.953 4.59815 291.849 3.56115L290.48 5.01885ZM292.44 7.98766C292.899 9.14912 293.135 10.4329 293.135 11.85H295.135C295.135 10.2071 294.861 8.67088 294.3 7.25234L292.44 7.98766Z" fill="white"/>
</svg>
