<svg width="39" height="34" viewBox="0 0 39 34" fill="none" xmlns="http://www.w3.org/2000/svg">
<g clip-path="url(#clip0_427_116)">
<path d="M4.02261 0.029802C4.61085 0.029802 5.20357 0.0553723 5.7918 0.029802C6.2479 -0.0171857 6.70739 0.0839431 7.09414 0.316448C7.48089 0.548954 7.7718 0.898891 7.91859 1.30832C10.0453 5.6297 12.1357 9.97237 14.3936 14.2298C14.7708 14.8557 14.9766 15.5601 14.9924 16.2796C15.0082 16.9991 14.8336 17.7109 14.4842 18.3509C12.2218 23.0772 10.1674 27.8716 8.07236 32.6618C7.93412 33.0831 7.64781 33.4476 7.26051 33.6955C6.87321 33.9433 6.40798 34.0597 5.94116 34.0256C4.66514 34.0256 3.38461 34.0256 2.10406 34.0256C0.294108 34 -0.46157 32.8749 0.271461 31.3236C2.38308 26.8687 4.49469 22.4166 6.6063 17.9674C6.75796 17.6777 6.83686 17.3591 6.83686 17.0362C6.83686 16.7133 6.75796 16.3946 6.6063 16.105C4.49318 11.6813 2.44793 7.21934 0.271461 2.82125C-0.493244 1.28277 0.538408 -0.161955 2.17189 0.0511314C2.78865 0.0804653 3.4068 0.0733276 4.02261 0.029802Z" fill="white"/>
</g>
<g clip-path="url(#clip1_427_116)">
<path d="M16.0226 0.029802C16.6108 0.029802 17.2036 0.0553723 17.7918 0.029802C18.2479 -0.0171857 18.7074 0.0839431 19.0941 0.316448C19.4809 0.548954 19.7718 0.898891 19.9186 1.30832C22.0453 5.6297 24.1357 9.97237 26.3936 14.2298C26.7708 14.8557 26.9766 15.5601 26.9924 16.2796C27.0082 16.9991 26.8336 17.7109 26.4842 18.3509C24.2218 23.0772 22.1674 27.8716 20.0724 32.6618C19.9341 33.0831 19.6478 33.4476 19.2605 33.6955C18.8732 33.9433 18.408 34.0597 17.9412 34.0256C16.6651 34.0256 15.3846 34.0256 14.1041 34.0256C12.2941 34 11.5384 32.8749 12.2715 31.3236C14.3831 26.8687 16.4947 22.4166 18.6063 17.9674C18.758 17.6777 18.8369 17.3591 18.8369 17.0362C18.8369 16.7133 18.758 16.3946 18.6063 16.105C16.4932 11.6813 14.4479 7.21934 12.2715 2.82125C11.5068 1.28277 12.5384 -0.161955 14.1719 0.0511314C14.7887 0.0804653 15.4068 0.0733276 16.0226 0.029802Z" fill="white"/>
</g>
<g clip-path="url(#clip2_427_116)">
<path d="M28.0226 0.029802C28.6108 0.029802 29.2036 0.0553723 29.7918 0.029802C30.2479 -0.0171857 30.7074 0.0839431 31.0941 0.316448C31.4809 0.548954 31.7718 0.898891 31.9186 1.30832C34.0453 5.6297 36.1357 9.97237 38.3936 14.2298C38.7708 14.8557 38.9766 15.5601 38.9924 16.2796C39.0082 16.9991 38.8336 17.7109 38.4842 18.3509C36.2218 23.0772 34.1674 27.8716 32.0724 32.6618C31.9341 33.0831 31.6478 33.4476 31.2605 33.6955C30.8732 33.9433 30.408 34.0597 29.9412 34.0256C28.6651 34.0256 27.3846 34.0256 26.1041 34.0256C24.2941 34 23.5384 32.8749 24.2715 31.3236C26.3831 26.8687 28.4947 22.4166 30.6063 17.9674C30.758 17.6777 30.8369 17.3591 30.8369 17.0362C30.8369 16.7133 30.758 16.3946 30.6063 16.105C28.4932 11.6813 26.4479 7.21934 24.2715 2.82125C23.5068 1.28277 24.5384 -0.161955 26.1719 0.0511314C26.7887 0.0804653 27.4068 0.0733276 28.0226 0.029802Z" fill="white"/>
</g>
<defs>
<clipPath id="clip0_427_116">
<rect width="15" height="34" fill="white"/>
</clipPath>
<clipPath id="clip1_427_116">
<rect width="15" height="34" fill="white" transform="translate(12)"/>
</clipPath>
<clipPath id="clip2_427_116">
<rect width="15" height="34" fill="white" transform="translate(24)"/>
</clipPath>
</defs>
</svg>
